M48
; DRILL file {KiCad (5.1.7)-1} date 01/23/21 22:43:46
; FORMAT={-:-/ absolute / inch / decimal}
; #@! TF.CreationDate,2021-01-23T22:43:46+00:00
; #@! TF.GenerationSoftware,Kicad,Pcbnew,(5.1.7)-1
; #@! TF.FileFunction,Plated,1,2,PTH
FMAT,2
INCH
T1C0.0157
T2C0.0315
T3C0.0354
T4C0.0394
T5C0.0433
%
G90
G05
T1
X4.9275Y-2.845
X5.1Y-3.0675
X5.106Y-4.2525
X5.17Y-3.1725
X5.1725Y-4.965
X5.1975Y-4.845
X5.2675Y-3.8825
X5.4075Y-5.1975
X5.4775Y-5.25
X5.595Y-5.355
X5.6238Y-4.5652
X5.6275Y-4.7725
X5.7775Y-4.6475
X5.78Y-5.2835
X5.7975Y-4.915
X5.885Y-4.845
X6.0675Y-5.3575
X6.07Y-5.26
T2
X5.7281Y-3.115
X5.925Y-3.115
X6.165Y-3.215
X6.2634Y-3.215
X5.69Y-4.08
X5.99Y-4.08
X5.54Y-5.505
X5.54Y-5.805
X5.69Y-4.205
X5.99Y-4.205
X5.69Y-3.575
X5.99Y-3.575
X5.69Y-3.955
X5.99Y-3.955
X5.69Y-4.58
X5.99Y-4.58
X5.415Y-5.505
X5.415Y-5.805
X5.735Y-3.33
X5.935Y-3.33
X4.595Y-5.68
X4.695Y-5.58
X4.695Y-5.78
X5.6688Y-5.5811
X5.6688Y-5.778
X5.69Y-4.71
X5.99Y-4.71
X5.69Y-4.455
X5.99Y-4.455
X5.035Y-5.445
X5.2319Y-5.445
X5.69Y-3.705
X5.99Y-3.705
X5.69Y-4.84
X5.99Y-4.84
X5.695Y-5.005
X5.695Y-5.105
X5.695Y-5.205
X5.695Y-5.305
X5.695Y-5.405
X6.295Y-5.005
X6.295Y-5.105
X6.295Y-5.205
X6.295Y-5.305
X6.295Y-5.405
X5.69Y-3.83
X5.99Y-3.83
X4.775Y-3.19
X4.775Y-3.29
X4.775Y-3.39
X4.775Y-3.49
X4.775Y-3.59
X4.775Y-3.69
X4.775Y-3.79
X4.775Y-3.89
X4.775Y-3.99
X4.775Y-4.09
X4.775Y-4.19
X4.775Y-4.29
X4.775Y-4.39
X4.775Y-4.49
X4.775Y-4.59
X4.775Y-4.69
X4.775Y-4.79
X4.775Y-4.89
X4.775Y-4.99
X4.775Y-5.09
X5.375Y-3.19
X5.375Y-3.29
X5.375Y-3.39
X5.375Y-3.49
X5.375Y-3.59
X5.375Y-3.69
X5.375Y-3.79
X5.375Y-3.89
X5.375Y-3.99
X5.375Y-4.09
X5.375Y-4.19
X5.375Y-4.29
X5.375Y-4.39
X5.375Y-4.49
X5.375Y-4.59
X5.375Y-4.69
X5.375Y-4.79
X5.375Y-4.89
X5.375Y-4.99
X5.375Y-5.09
X6.055Y-2.835
X6.355Y-2.835
X5.69Y-4.33
X5.99Y-4.33
T3
X6.16Y-3.4475
X6.26Y-3.4475
X6.16Y-4.545
X6.26Y-4.545
X6.16Y-2.99
X6.26Y-2.99
X6.16Y-3.8125
X6.26Y-3.8125
X6.16Y-3.9975
X6.26Y-3.9975
X6.16Y-4.73
X6.26Y-4.73
X6.16Y-4.3625
X6.26Y-4.3625
X6.16Y-4.18
X6.26Y-4.18
X6.16Y-3.63
X6.26Y-3.63
T4
X5.5Y-3.19
X5.5Y-3.29
X5.5Y-3.39
X5.5Y-3.49
X5.5Y-3.59
X5.5Y-3.69
X5.5Y-3.79
X5.5Y-3.89
X5.5Y-3.99
X5.5Y-4.09
X5.5Y-4.19
X5.5Y-4.29
X5.5Y-4.39
X5.5Y-4.49
X5.5Y-4.59
X5.5Y-4.69
X5.5Y-4.79
X5.5Y-4.89
X5.5Y-4.99
X5.5Y-5.09
X4.65Y-2.92
X4.75Y-2.92
X4.85Y-2.92
X4.95Y-2.92
X5.05Y-2.92
X5.5Y-2.925
X5.6Y-2.925
X5.7Y-2.925
X5.8Y-2.925
X4.65Y-3.19
X4.65Y-3.29
X4.65Y-3.39
X4.65Y-3.49
X4.65Y-3.59
X4.65Y-3.69
X4.65Y-3.79
X4.65Y-3.89
X4.65Y-3.99
X4.65Y-4.09
X4.65Y-4.19
X4.65Y-4.29
X4.65Y-4.39
X4.65Y-4.49
X4.65Y-4.59
X4.65Y-4.69
X4.65Y-4.79
X4.65Y-4.89
X4.65Y-4.99
X4.65Y-5.09
T5
X5.0091Y-5.5828
X5.0091Y-5.76
X5.265Y-5.5828
X5.265Y-5.76
X5.8191Y-5.583
X5.8191Y-5.7601
X6.075Y-5.583
X6.075Y-5.7601
T0
M30
