%TF.GenerationSoftware,KiCad,Pcbnew,(5.1.7)-1*%
%TF.CreationDate,2021-01-23T22:43:51+00:00*%
%TF.ProjectId,Projeto1,50726f6a-6574-46f3-912e-6b696361645f,rev?*%
%TF.SameCoordinates,Original*%
%TF.FileFunction,Soldermask,Top*%
%TF.FilePolarity,Negative*%
%FSLAX46Y46*%
G04 Gerber Fmt 4.6, Leading zero omitted, Abs format (unit mm)*
G04 Created by KiCad (PCBNEW (5.1.7)-1) date 2021-01-23 22:43:51*
%MOMM*%
%LPD*%
G01*
G04 APERTURE LIST*
%ADD10O,1.700000X1.700000*%
%ADD11R,1.700000X1.700000*%
%ADD12O,1.600000X1.600000*%
%ADD13R,1.600000X1.600000*%
%ADD14C,1.800000*%
%ADD15R,1.800000X1.800000*%
%ADD16C,1.600000*%
%ADD17R,2.524000X1.524000*%
%ADD18O,2.524000X1.524000*%
%ADD19C,1.440000*%
%ADD20C,2.000000*%
G04 APERTURE END LIST*
D10*
%TO.C,J1*%
X128270000Y-74168000D03*
X125730000Y-74168000D03*
X123190000Y-74168000D03*
X120650000Y-74168000D03*
D11*
X118110000Y-74168000D03*
%TD*%
D10*
%TO.C,J4*%
X118110000Y-129286000D03*
X118110000Y-126746000D03*
X118110000Y-124206000D03*
X118110000Y-121666000D03*
X118110000Y-119126000D03*
X118110000Y-116586000D03*
X118110000Y-114046000D03*
X118110000Y-111506000D03*
X118110000Y-108966000D03*
X118110000Y-106426000D03*
X118110000Y-103886000D03*
X118110000Y-101346000D03*
X118110000Y-98806000D03*
X118110000Y-96266000D03*
X118110000Y-93726000D03*
X118110000Y-91186000D03*
X118110000Y-88646000D03*
X118110000Y-86106000D03*
X118110000Y-83566000D03*
D11*
X118110000Y-81026000D03*
%TD*%
D12*
%TO.C,PIC18F4580*%
X136525000Y-81026000D03*
X121285000Y-129286000D03*
X136525000Y-83566000D03*
X121285000Y-126746000D03*
X136525000Y-86106000D03*
X121285000Y-124206000D03*
X136525000Y-88646000D03*
X121285000Y-121666000D03*
X136525000Y-91186000D03*
X121285000Y-119126000D03*
X136525000Y-93726000D03*
X121285000Y-116586000D03*
X136525000Y-96266000D03*
X121285000Y-114046000D03*
X136525000Y-98806000D03*
X121285000Y-111506000D03*
X136525000Y-101346000D03*
X121285000Y-108966000D03*
X136525000Y-103886000D03*
X121285000Y-106426000D03*
X136525000Y-106426000D03*
X121285000Y-103886000D03*
X136525000Y-108966000D03*
X121285000Y-101346000D03*
X136525000Y-111506000D03*
X121285000Y-98806000D03*
X136525000Y-114046000D03*
X121285000Y-96266000D03*
X136525000Y-116586000D03*
X121285000Y-93726000D03*
X136525000Y-119126000D03*
X121285000Y-91186000D03*
X136525000Y-121666000D03*
X121285000Y-88646000D03*
X136525000Y-124206000D03*
X121285000Y-86106000D03*
X136525000Y-126746000D03*
X121285000Y-83566000D03*
X136525000Y-129286000D03*
D13*
X121285000Y-81026000D03*
%TD*%
D14*
%TO.C,D9*%
X156464000Y-75946000D03*
D15*
X159004000Y-75946000D03*
%TD*%
D16*
%TO.C,R14*%
X150749000Y-84582000D03*
X145669000Y-84582000D03*
%TD*%
D12*
%TO.C,R15*%
X152146000Y-90805000D03*
D16*
X144526000Y-90805000D03*
%TD*%
D12*
%TO.C,R13*%
X152146000Y-122936000D03*
D16*
X144526000Y-122936000D03*
%TD*%
D12*
%TO.C,R12*%
X152146000Y-119634000D03*
D16*
X144526000Y-119634000D03*
%TD*%
D12*
%TO.C,R10*%
X137541000Y-147447000D03*
D16*
X137541000Y-139827000D03*
%TD*%
D12*
%TO.C,R9*%
X140716000Y-139827000D03*
D16*
X140716000Y-147447000D03*
%TD*%
D17*
%TO.C,AFF1*%
X159893000Y-137287000D03*
D18*
X159893000Y-134747000D03*
X159893000Y-132207000D03*
X159893000Y-129667000D03*
X159893000Y-127127000D03*
X144653000Y-127127000D03*
X144653000Y-129667000D03*
X144653000Y-132207000D03*
X144653000Y-134747000D03*
X144653000Y-137287000D03*
%TD*%
D12*
%TO.C,R11*%
X161417000Y-72009000D03*
D16*
X153797000Y-72009000D03*
%TD*%
D19*
%TO.C,RV1*%
X119253000Y-141732000D03*
X116713000Y-144272000D03*
X119253000Y-146812000D03*
%TD*%
D16*
%TO.C,C5*%
X159091000Y-81661000D03*
X156591000Y-81661000D03*
%TD*%
D20*
%TO.C,Bot\u00E3o1*%
X147805000Y-146307000D03*
X147805000Y-141807000D03*
X154305000Y-146307000D03*
X154305000Y-141807000D03*
%TD*%
%TO.C,RESET1*%
X127231000Y-146304000D03*
X127231000Y-141804000D03*
X133731000Y-146304000D03*
X133731000Y-141804000D03*
%TD*%
D10*
%TO.C,J3*%
X139700000Y-81026000D03*
X139700000Y-83566000D03*
X139700000Y-86106000D03*
X139700000Y-88646000D03*
X139700000Y-91186000D03*
X139700000Y-93726000D03*
X139700000Y-96266000D03*
X139700000Y-98806000D03*
X139700000Y-101346000D03*
X139700000Y-103886000D03*
X139700000Y-106426000D03*
X139700000Y-108966000D03*
X139700000Y-111506000D03*
X139700000Y-114046000D03*
X139700000Y-116586000D03*
X139700000Y-119126000D03*
X139700000Y-121666000D03*
X139700000Y-124206000D03*
X139700000Y-126746000D03*
D11*
X139700000Y-129286000D03*
%TD*%
D10*
%TO.C,J2*%
X139700000Y-74295000D03*
X142240000Y-74295000D03*
X144780000Y-74295000D03*
D11*
X147320000Y-74295000D03*
%TD*%
D14*
%TO.C,D8*%
X156464000Y-120142000D03*
D15*
X159004000Y-120142000D03*
%TD*%
D14*
%TO.C,D7*%
X156464000Y-115443000D03*
D15*
X159004000Y-115443000D03*
%TD*%
D14*
%TO.C,D6*%
X156464000Y-110808000D03*
D15*
X159004000Y-110808000D03*
%TD*%
D14*
%TO.C,D5*%
X156464000Y-106172000D03*
D15*
X159004000Y-106172000D03*
%TD*%
D14*
%TO.C,D4*%
X156464000Y-101536000D03*
D15*
X159004000Y-101536000D03*
%TD*%
D14*
%TO.C,D3*%
X156464000Y-96837500D03*
D15*
X159004000Y-96837500D03*
%TD*%
D14*
%TO.C,D2*%
X156464000Y-92202000D03*
D15*
X159004000Y-92202000D03*
%TD*%
D14*
%TO.C,D1*%
X156464000Y-87566500D03*
D15*
X159004000Y-87566500D03*
%TD*%
D16*
%TO.C,C3*%
X145495000Y-79121000D03*
X150495000Y-79121000D03*
%TD*%
D12*
%TO.C,R8*%
X144526000Y-100457000D03*
D16*
X152146000Y-100457000D03*
%TD*%
D12*
%TO.C,R7*%
X144526000Y-103632000D03*
D16*
X152146000Y-103632000D03*
%TD*%
D12*
%TO.C,R6*%
X144526000Y-106807000D03*
D16*
X152146000Y-106807000D03*
%TD*%
D12*
%TO.C,R5*%
X144526000Y-109982000D03*
D16*
X152146000Y-109982000D03*
%TD*%
D12*
%TO.C,R4*%
X144526000Y-113157000D03*
D16*
X152146000Y-113157000D03*
%TD*%
D12*
%TO.C,R3*%
X144526000Y-116332000D03*
D16*
X152146000Y-116332000D03*
%TD*%
D12*
%TO.C,R2*%
X144526000Y-97282000D03*
D16*
X152146000Y-97282000D03*
%TD*%
D12*
%TO.C,R1*%
X144526000Y-94107000D03*
D16*
X152146000Y-94107000D03*
%TD*%
%TO.C,C1*%
X132889000Y-138303000D03*
X127889000Y-138303000D03*
%TD*%
%TO.C,C2*%
X143987520Y-146759940D03*
X143987520Y-141759940D03*
%TD*%
M02*
