%TF.GenerationSoftware,KiCad,Pcbnew,(5.1.7)-1*%
%TF.CreationDate,2021-01-23T22:43:51+00:00*%
%TF.ProjectId,Projeto1,50726f6a-6574-46f3-912e-6b696361645f,rev?*%
%TF.SameCoordinates,Original*%
%TF.FileFunction,Legend,Top*%
%TF.FilePolarity,Positive*%
%FSLAX46Y46*%
G04 Gerber Fmt 4.6, Leading zero omitted, Abs format (unit mm)*
G04 Created by KiCad (PCBNEW (5.1.7)-1) date 2021-01-23 22:43:51*
%MOMM*%
%LPD*%
G01*
G04 APERTURE LIST*
%ADD10C,0.150000*%
%ADD11C,0.120000*%
G04 APERTURE END LIST*
D10*
X121363714Y-138918547D02*
X121401809Y-138956642D01*
X121439904Y-139070928D01*
X121439904Y-139147119D01*
X121401809Y-139261404D01*
X121325619Y-139337595D01*
X121249428Y-139375690D01*
X121097047Y-139413785D01*
X120982761Y-139413785D01*
X120830380Y-139375690D01*
X120754190Y-139337595D01*
X120678000Y-139261404D01*
X120639904Y-139147119D01*
X120639904Y-139070928D01*
X120678000Y-138956642D01*
X120716095Y-138918547D01*
X121439904Y-138232833D02*
X121020857Y-138232833D01*
X120944666Y-138270928D01*
X120906571Y-138347119D01*
X120906571Y-138499500D01*
X120944666Y-138575690D01*
X121401809Y-138232833D02*
X121439904Y-138309023D01*
X121439904Y-138499500D01*
X121401809Y-138575690D01*
X121325619Y-138613785D01*
X121249428Y-138613785D01*
X121173238Y-138575690D01*
X121135142Y-138499500D01*
X121135142Y-138309023D01*
X121097047Y-138232833D01*
X121439904Y-137851880D02*
X120906571Y-137851880D01*
X121058952Y-137851880D02*
X120982761Y-137813785D01*
X120944666Y-137775690D01*
X120906571Y-137699500D01*
X120906571Y-137623309D01*
X121439904Y-137242357D02*
X121401809Y-137318547D01*
X121325619Y-137356642D01*
X120639904Y-137356642D01*
X121439904Y-136823309D02*
X121401809Y-136899500D01*
X121363714Y-136937595D01*
X121287523Y-136975690D01*
X121058952Y-136975690D01*
X120982761Y-136937595D01*
X120944666Y-136899500D01*
X120906571Y-136823309D01*
X120906571Y-136709023D01*
X120944666Y-136632833D01*
X120982761Y-136594738D01*
X121058952Y-136556642D01*
X121287523Y-136556642D01*
X121363714Y-136594738D01*
X121401809Y-136632833D01*
X121439904Y-136709023D01*
X121439904Y-136823309D01*
X121401809Y-136251880D02*
X121439904Y-136175690D01*
X121439904Y-136023309D01*
X121401809Y-135947119D01*
X121325619Y-135909023D01*
X121287523Y-135909023D01*
X121211333Y-135947119D01*
X121173238Y-136023309D01*
X121173238Y-136137595D01*
X121135142Y-136213785D01*
X121058952Y-136251880D01*
X121020857Y-136251880D01*
X120944666Y-136213785D01*
X120906571Y-136137595D01*
X120906571Y-136023309D01*
X120944666Y-135947119D01*
X121211333Y-134994738D02*
X121211333Y-134613785D01*
X121439904Y-135070928D02*
X120639904Y-134804261D01*
X121439904Y-134537595D01*
X121439904Y-134270928D02*
X120639904Y-134270928D01*
X120944666Y-134270928D02*
X120906571Y-134194738D01*
X120906571Y-134042357D01*
X120944666Y-133966166D01*
X120982761Y-133928071D01*
X121058952Y-133889976D01*
X121287523Y-133889976D01*
X121363714Y-133928071D01*
X121401809Y-133966166D01*
X121439904Y-134042357D01*
X121439904Y-134194738D01*
X121401809Y-134270928D01*
X121439904Y-133547119D02*
X120906571Y-133547119D01*
X121058952Y-133547119D02*
X120982761Y-133509023D01*
X120944666Y-133470928D01*
X120906571Y-133394738D01*
X120906571Y-133318547D01*
X121401809Y-132747119D02*
X121439904Y-132823309D01*
X121439904Y-132975690D01*
X121401809Y-133051880D01*
X121325619Y-133089976D01*
X121020857Y-133089976D01*
X120944666Y-133051880D01*
X120906571Y-132975690D01*
X120906571Y-132823309D01*
X120944666Y-132747119D01*
X121020857Y-132709023D01*
X121097047Y-132709023D01*
X121173238Y-133089976D01*
X120906571Y-132023309D02*
X121439904Y-132023309D01*
X120906571Y-132366166D02*
X121325619Y-132366166D01*
X121401809Y-132328071D01*
X121439904Y-132251880D01*
X121439904Y-132137595D01*
X121401809Y-132061404D01*
X121363714Y-132023309D01*
X122789904Y-139394738D02*
X122408952Y-139661404D01*
X122789904Y-139851880D02*
X121989904Y-139851880D01*
X121989904Y-139547119D01*
X122028000Y-139470928D01*
X122066095Y-139432833D01*
X122142285Y-139394738D01*
X122256571Y-139394738D01*
X122332761Y-139432833D01*
X122370857Y-139470928D01*
X122408952Y-139547119D01*
X122408952Y-139851880D01*
X122789904Y-138709023D02*
X122370857Y-138709023D01*
X122294666Y-138747119D01*
X122256571Y-138823309D01*
X122256571Y-138975690D01*
X122294666Y-139051880D01*
X122751809Y-138709023D02*
X122789904Y-138785214D01*
X122789904Y-138975690D01*
X122751809Y-139051880D01*
X122675619Y-139089976D01*
X122599428Y-139089976D01*
X122523238Y-139051880D01*
X122485142Y-138975690D01*
X122485142Y-138785214D01*
X122447047Y-138709023D01*
X122256571Y-138442357D02*
X122256571Y-138137595D01*
X122789904Y-138328071D02*
X122104190Y-138328071D01*
X122028000Y-138289976D01*
X121989904Y-138213785D01*
X121989904Y-138137595D01*
X122789904Y-137528071D02*
X122370857Y-137528071D01*
X122294666Y-137566166D01*
X122256571Y-137642357D01*
X122256571Y-137794738D01*
X122294666Y-137870928D01*
X122751809Y-137528071D02*
X122789904Y-137604261D01*
X122789904Y-137794738D01*
X122751809Y-137870928D01*
X122675619Y-137909023D01*
X122599428Y-137909023D01*
X122523238Y-137870928D01*
X122485142Y-137794738D01*
X122485142Y-137604261D01*
X122447047Y-137528071D01*
X122751809Y-136842357D02*
X122789904Y-136918547D01*
X122789904Y-137070928D01*
X122751809Y-137147119D01*
X122675619Y-137185214D01*
X122370857Y-137185214D01*
X122294666Y-137147119D01*
X122256571Y-137070928D01*
X122256571Y-136918547D01*
X122294666Y-136842357D01*
X122370857Y-136804261D01*
X122447047Y-136804261D01*
X122523238Y-137185214D01*
X122789904Y-136347119D02*
X122751809Y-136423309D01*
X122675619Y-136461404D01*
X121989904Y-136461404D01*
X122789904Y-135432833D02*
X121989904Y-135432833D01*
X121989904Y-135128071D01*
X122028000Y-135051880D01*
X122066095Y-135013785D01*
X122142285Y-134975690D01*
X122256571Y-134975690D01*
X122332761Y-135013785D01*
X122370857Y-135051880D01*
X122408952Y-135128071D01*
X122408952Y-135432833D01*
X122751809Y-134328071D02*
X122789904Y-134404261D01*
X122789904Y-134556642D01*
X122751809Y-134632833D01*
X122675619Y-134670928D01*
X122370857Y-134670928D01*
X122294666Y-134632833D01*
X122256571Y-134556642D01*
X122256571Y-134404261D01*
X122294666Y-134328071D01*
X122370857Y-134289976D01*
X122447047Y-134289976D01*
X122523238Y-134670928D01*
X122789904Y-133947119D02*
X122256571Y-133947119D01*
X122408952Y-133947119D02*
X122332761Y-133909023D01*
X122294666Y-133870928D01*
X122256571Y-133794738D01*
X122256571Y-133718547D01*
X122751809Y-133147119D02*
X122789904Y-133223309D01*
X122789904Y-133375690D01*
X122751809Y-133451880D01*
X122675619Y-133489976D01*
X122370857Y-133489976D01*
X122294666Y-133451880D01*
X122256571Y-133375690D01*
X122256571Y-133223309D01*
X122294666Y-133147119D01*
X122370857Y-133109023D01*
X122447047Y-133109023D01*
X122523238Y-133489976D01*
X122789904Y-132766166D02*
X122256571Y-132766166D01*
X121989904Y-132766166D02*
X122028000Y-132804261D01*
X122066095Y-132766166D01*
X122028000Y-132728071D01*
X121989904Y-132766166D01*
X122066095Y-132766166D01*
X122789904Y-132385214D02*
X122256571Y-132385214D01*
X122408952Y-132385214D02*
X122332761Y-132347119D01*
X122294666Y-132309023D01*
X122256571Y-132232833D01*
X122256571Y-132156642D01*
X122789904Y-131547119D02*
X122370857Y-131547119D01*
X122294666Y-131585214D01*
X122256571Y-131661404D01*
X122256571Y-131813785D01*
X122294666Y-131889976D01*
X122751809Y-131547119D02*
X122789904Y-131623309D01*
X122789904Y-131813785D01*
X122751809Y-131889976D01*
X122675619Y-131928071D01*
X122599428Y-131928071D01*
X122523238Y-131889976D01*
X122485142Y-131813785D01*
X122485142Y-131623309D01*
X122447047Y-131547119D01*
X123339904Y-138651880D02*
X123911333Y-138651880D01*
X124025619Y-138689976D01*
X124101809Y-138766166D01*
X124139904Y-138880452D01*
X124139904Y-138956642D01*
X124139904Y-138156642D02*
X124101809Y-138232833D01*
X124063714Y-138270928D01*
X123987523Y-138309023D01*
X123758952Y-138309023D01*
X123682761Y-138270928D01*
X123644666Y-138232833D01*
X123606571Y-138156642D01*
X123606571Y-138042357D01*
X123644666Y-137966166D01*
X123682761Y-137928071D01*
X123758952Y-137889976D01*
X123987523Y-137889976D01*
X124063714Y-137928071D01*
X124101809Y-137966166D01*
X124139904Y-138042357D01*
X124139904Y-138156642D01*
X124139904Y-137204261D02*
X123720857Y-137204261D01*
X123644666Y-137242357D01*
X123606571Y-137318547D01*
X123606571Y-137470928D01*
X123644666Y-137547119D01*
X124101809Y-137204261D02*
X124139904Y-137280452D01*
X124139904Y-137470928D01*
X124101809Y-137547119D01*
X124025619Y-137585214D01*
X123949428Y-137585214D01*
X123873238Y-137547119D01*
X123835142Y-137470928D01*
X123835142Y-137280452D01*
X123797047Y-137204261D01*
X123416095Y-137585214D02*
X123378000Y-137547119D01*
X123339904Y-137470928D01*
X123416095Y-137318547D01*
X123378000Y-137242357D01*
X123339904Y-137204261D01*
X124139904Y-136709023D02*
X124101809Y-136785214D01*
X124063714Y-136823309D01*
X123987523Y-136861404D01*
X123758952Y-136861404D01*
X123682761Y-136823309D01*
X123644666Y-136785214D01*
X123606571Y-136709023D01*
X123606571Y-136594738D01*
X123644666Y-136518547D01*
X123682761Y-136480452D01*
X123758952Y-136442357D01*
X123987523Y-136442357D01*
X124063714Y-136480452D01*
X124101809Y-136518547D01*
X124139904Y-136594738D01*
X124139904Y-136709023D01*
X124063714Y-135032833D02*
X124101809Y-135070928D01*
X124139904Y-135185214D01*
X124139904Y-135261404D01*
X124101809Y-135375690D01*
X124025619Y-135451880D01*
X123949428Y-135489976D01*
X123797047Y-135528071D01*
X123682761Y-135528071D01*
X123530380Y-135489976D01*
X123454190Y-135451880D01*
X123378000Y-135375690D01*
X123339904Y-135261404D01*
X123339904Y-135185214D01*
X123378000Y-135070928D01*
X123416095Y-135032833D01*
X124139904Y-134575690D02*
X124101809Y-134651880D01*
X124063714Y-134689976D01*
X123987523Y-134728071D01*
X123758952Y-134728071D01*
X123682761Y-134689976D01*
X123644666Y-134651880D01*
X123606571Y-134575690D01*
X123606571Y-134461404D01*
X123644666Y-134385214D01*
X123682761Y-134347119D01*
X123758952Y-134309023D01*
X123987523Y-134309023D01*
X124063714Y-134347119D01*
X124101809Y-134385214D01*
X124139904Y-134461404D01*
X124139904Y-134575690D01*
X124101809Y-134004261D02*
X124139904Y-133928071D01*
X124139904Y-133775690D01*
X124101809Y-133699500D01*
X124025619Y-133661404D01*
X123987523Y-133661404D01*
X123911333Y-133699500D01*
X123873238Y-133775690D01*
X123873238Y-133889976D01*
X123835142Y-133966166D01*
X123758952Y-134004261D01*
X123720857Y-134004261D01*
X123644666Y-133966166D01*
X123606571Y-133889976D01*
X123606571Y-133775690D01*
X123644666Y-133699500D01*
X123606571Y-133432833D02*
X123606571Y-133128071D01*
X123339904Y-133318547D02*
X124025619Y-133318547D01*
X124101809Y-133280452D01*
X124139904Y-133204261D01*
X124139904Y-133128071D01*
X124139904Y-132518547D02*
X123720857Y-132518547D01*
X123644666Y-132556642D01*
X123606571Y-132632833D01*
X123606571Y-132785214D01*
X123644666Y-132861404D01*
X124101809Y-132518547D02*
X124139904Y-132594738D01*
X124139904Y-132785214D01*
X124101809Y-132861404D01*
X124025619Y-132899500D01*
X123949428Y-132899500D01*
X123873238Y-132861404D01*
X123835142Y-132785214D01*
X123835142Y-132594738D01*
X123797047Y-132518547D01*
X130981404Y-74320214D02*
X130181404Y-74320214D01*
X130181404Y-74015452D01*
X130219500Y-73939261D01*
X130257595Y-73901166D01*
X130333785Y-73863071D01*
X130448071Y-73863071D01*
X130524261Y-73901166D01*
X130562357Y-73939261D01*
X130600452Y-74015452D01*
X130600452Y-74320214D01*
X130981404Y-73520214D02*
X130448071Y-73520214D01*
X130181404Y-73520214D02*
X130219500Y-73558309D01*
X130257595Y-73520214D01*
X130219500Y-73482119D01*
X130181404Y-73520214D01*
X130257595Y-73520214D01*
X130943309Y-72796404D02*
X130981404Y-72872595D01*
X130981404Y-73024976D01*
X130943309Y-73101166D01*
X130905214Y-73139261D01*
X130829023Y-73177357D01*
X130600452Y-73177357D01*
X130524261Y-73139261D01*
X130486166Y-73101166D01*
X130448071Y-73024976D01*
X130448071Y-72872595D01*
X130486166Y-72796404D01*
X130981404Y-72453547D02*
X130181404Y-72453547D01*
X130676642Y-72377357D02*
X130981404Y-72148785D01*
X130448071Y-72148785D02*
X130752833Y-72453547D01*
X130981404Y-71805928D02*
X130448071Y-71805928D01*
X130181404Y-71805928D02*
X130219500Y-71844023D01*
X130257595Y-71805928D01*
X130219500Y-71767833D01*
X130181404Y-71805928D01*
X130257595Y-71805928D01*
X130448071Y-71539261D02*
X130448071Y-71234500D01*
X130181404Y-71424976D02*
X130867119Y-71424976D01*
X130943309Y-71386880D01*
X130981404Y-71310690D01*
X130981404Y-71234500D01*
X149421904Y-75463095D02*
X150069523Y-75463095D01*
X150145714Y-75425000D01*
X150183809Y-75386904D01*
X150221904Y-75310714D01*
X150221904Y-75158333D01*
X150183809Y-75082142D01*
X150145714Y-75044047D01*
X150069523Y-75005952D01*
X149421904Y-75005952D01*
X150183809Y-74663095D02*
X150221904Y-74548809D01*
X150221904Y-74358333D01*
X150183809Y-74282142D01*
X150145714Y-74244047D01*
X150069523Y-74205952D01*
X149993333Y-74205952D01*
X149917142Y-74244047D01*
X149879047Y-74282142D01*
X149840952Y-74358333D01*
X149802857Y-74510714D01*
X149764761Y-74586904D01*
X149726666Y-74625000D01*
X149650476Y-74663095D01*
X149574285Y-74663095D01*
X149498095Y-74625000D01*
X149460000Y-74586904D01*
X149421904Y-74510714D01*
X149421904Y-74320238D01*
X149460000Y-74205952D01*
X149802857Y-73596428D02*
X149840952Y-73482142D01*
X149879047Y-73444047D01*
X149955238Y-73405952D01*
X150069523Y-73405952D01*
X150145714Y-73444047D01*
X150183809Y-73482142D01*
X150221904Y-73558333D01*
X150221904Y-73863095D01*
X149421904Y-73863095D01*
X149421904Y-73596428D01*
X149460000Y-73520238D01*
X149498095Y-73482142D01*
X149574285Y-73444047D01*
X149650476Y-73444047D01*
X149726666Y-73482142D01*
X149764761Y-73520238D01*
X149802857Y-73596428D01*
X149802857Y-73863095D01*
X149917142Y-73063095D02*
X149917142Y-72453571D01*
X149421904Y-72186904D02*
X149421904Y-71729761D01*
X150221904Y-71958333D02*
X149421904Y-71958333D01*
X149421904Y-71577380D02*
X149421904Y-71120238D01*
X150221904Y-71348809D02*
X149421904Y-71348809D01*
X150221904Y-70472619D02*
X150221904Y-70853571D01*
X149421904Y-70853571D01*
X161218619Y-148160857D02*
X161171000Y-148113238D01*
X161123380Y-148018000D01*
X161123380Y-147779904D01*
X161171000Y-147684666D01*
X161218619Y-147637047D01*
X161313857Y-147589428D01*
X161409095Y-147589428D01*
X161551952Y-147637047D01*
X162123380Y-148208476D01*
X162123380Y-147589428D01*
X161123380Y-146970380D02*
X161123380Y-146875142D01*
X161171000Y-146779904D01*
X161218619Y-146732285D01*
X161313857Y-146684666D01*
X161504333Y-146637047D01*
X161742428Y-146637047D01*
X161932904Y-146684666D01*
X162028142Y-146732285D01*
X162075761Y-146779904D01*
X162123380Y-146875142D01*
X162123380Y-146970380D01*
X162075761Y-147065619D01*
X162028142Y-147113238D01*
X161932904Y-147160857D01*
X161742428Y-147208476D01*
X161504333Y-147208476D01*
X161313857Y-147160857D01*
X161218619Y-147113238D01*
X161171000Y-147065619D01*
X161123380Y-146970380D01*
X161218619Y-146256095D02*
X161171000Y-146208476D01*
X161123380Y-146113238D01*
X161123380Y-145875142D01*
X161171000Y-145779904D01*
X161218619Y-145732285D01*
X161313857Y-145684666D01*
X161409095Y-145684666D01*
X161551952Y-145732285D01*
X162123380Y-146303714D01*
X162123380Y-145684666D01*
X161123380Y-145065619D02*
X161123380Y-144970380D01*
X161171000Y-144875142D01*
X161218619Y-144827523D01*
X161313857Y-144779904D01*
X161504333Y-144732285D01*
X161742428Y-144732285D01*
X161932904Y-144779904D01*
X162028142Y-144827523D01*
X162075761Y-144875142D01*
X162123380Y-144970380D01*
X162123380Y-145065619D01*
X162075761Y-145160857D01*
X162028142Y-145208476D01*
X161932904Y-145256095D01*
X161742428Y-145303714D01*
X161504333Y-145303714D01*
X161313857Y-145256095D01*
X161218619Y-145208476D01*
X161171000Y-145160857D01*
X161123380Y-145065619D01*
X161075761Y-143589428D02*
X162361476Y-144446571D01*
X161218619Y-143303714D02*
X161171000Y-143256095D01*
X161123380Y-143160857D01*
X161123380Y-142922761D01*
X161171000Y-142827523D01*
X161218619Y-142779904D01*
X161313857Y-142732285D01*
X161409095Y-142732285D01*
X161551952Y-142779904D01*
X162123380Y-143351333D01*
X162123380Y-142732285D01*
X161123380Y-142113238D02*
X161123380Y-142018000D01*
X161171000Y-141922761D01*
X161218619Y-141875142D01*
X161313857Y-141827523D01*
X161504333Y-141779904D01*
X161742428Y-141779904D01*
X161932904Y-141827523D01*
X162028142Y-141875142D01*
X162075761Y-141922761D01*
X162123380Y-142018000D01*
X162123380Y-142113238D01*
X162075761Y-142208476D01*
X162028142Y-142256095D01*
X161932904Y-142303714D01*
X161742428Y-142351333D01*
X161504333Y-142351333D01*
X161313857Y-142303714D01*
X161218619Y-142256095D01*
X161171000Y-142208476D01*
X161123380Y-142113238D01*
X161218619Y-141398952D02*
X161171000Y-141351333D01*
X161123380Y-141256095D01*
X161123380Y-141018000D01*
X161171000Y-140922761D01*
X161218619Y-140875142D01*
X161313857Y-140827523D01*
X161409095Y-140827523D01*
X161551952Y-140875142D01*
X162123380Y-141446571D01*
X162123380Y-140827523D01*
X162123380Y-139875142D02*
X162123380Y-140446571D01*
X162123380Y-140160857D02*
X161123380Y-140160857D01*
X161266238Y-140256095D01*
X161361476Y-140351333D01*
X161409095Y-140446571D01*
X160297761Y-145764095D02*
X160345380Y-145621238D01*
X160345380Y-145383142D01*
X160297761Y-145287904D01*
X160250142Y-145240285D01*
X160154904Y-145192666D01*
X160059666Y-145192666D01*
X159964428Y-145240285D01*
X159916809Y-145287904D01*
X159869190Y-145383142D01*
X159821571Y-145573619D01*
X159773952Y-145668857D01*
X159726333Y-145716476D01*
X159631095Y-145764095D01*
X159535857Y-145764095D01*
X159440619Y-145716476D01*
X159393000Y-145668857D01*
X159345380Y-145573619D01*
X159345380Y-145335523D01*
X159393000Y-145192666D01*
X159821571Y-144764095D02*
X159821571Y-144430761D01*
X160345380Y-144287904D02*
X160345380Y-144764095D01*
X159345380Y-144764095D01*
X159345380Y-144287904D01*
X160250142Y-143287904D02*
X160297761Y-143335523D01*
X160345380Y-143478380D01*
X160345380Y-143573619D01*
X160297761Y-143716476D01*
X160202523Y-143811714D01*
X160107285Y-143859333D01*
X159916809Y-143906952D01*
X159773952Y-143906952D01*
X159583476Y-143859333D01*
X159488238Y-143811714D01*
X159393000Y-143716476D01*
X159345380Y-143573619D01*
X159345380Y-143478380D01*
X159393000Y-143335523D01*
X159440619Y-143287904D01*
X158567380Y-148383095D02*
X157567380Y-148383095D01*
X158567380Y-147906904D02*
X157567380Y-147906904D01*
X157567380Y-147525952D01*
X157615000Y-147430714D01*
X157662619Y-147383095D01*
X157757857Y-147335476D01*
X157900714Y-147335476D01*
X157995952Y-147383095D01*
X158043571Y-147430714D01*
X158091190Y-147525952D01*
X158091190Y-147906904D01*
X157567380Y-147049761D02*
X158567380Y-146716428D01*
X157567380Y-146383095D01*
X158472142Y-145478333D02*
X158519761Y-145525952D01*
X158567380Y-145668809D01*
X158567380Y-145764047D01*
X158519761Y-145906904D01*
X158424523Y-146002142D01*
X158329285Y-146049761D01*
X158138809Y-146097380D01*
X157995952Y-146097380D01*
X157805476Y-146049761D01*
X157710238Y-146002142D01*
X157615000Y-145906904D01*
X157567380Y-145764047D01*
X157567380Y-145668809D01*
X157615000Y-145525952D01*
X157662619Y-145478333D01*
X158186428Y-145049761D02*
X158186428Y-144287857D01*
X158043571Y-143811666D02*
X158043571Y-143478333D01*
X158567380Y-143335476D02*
X158567380Y-143811666D01*
X157567380Y-143811666D01*
X157567380Y-143335476D01*
X158519761Y-142954523D02*
X158567380Y-142811666D01*
X158567380Y-142573571D01*
X158519761Y-142478333D01*
X158472142Y-142430714D01*
X158376904Y-142383095D01*
X158281666Y-142383095D01*
X158186428Y-142430714D01*
X158138809Y-142478333D01*
X158091190Y-142573571D01*
X158043571Y-142764047D01*
X157995952Y-142859285D01*
X157948333Y-142906904D01*
X157853095Y-142954523D01*
X157757857Y-142954523D01*
X157662619Y-142906904D01*
X157615000Y-142859285D01*
X157567380Y-142764047D01*
X157567380Y-142525952D01*
X157615000Y-142383095D01*
X157567380Y-142097380D02*
X157567380Y-141525952D01*
X158567380Y-141811666D02*
X157567380Y-141811666D01*
X157615000Y-140668809D02*
X157567380Y-140764047D01*
X157567380Y-140906904D01*
X157615000Y-141049761D01*
X157710238Y-141145000D01*
X157805476Y-141192619D01*
X157995952Y-141240238D01*
X158138809Y-141240238D01*
X158329285Y-141192619D01*
X158424523Y-141145000D01*
X158519761Y-141049761D01*
X158567380Y-140906904D01*
X158567380Y-140811666D01*
X158519761Y-140668809D01*
X158472142Y-140621190D01*
X158138809Y-140621190D01*
X158138809Y-140811666D01*
D11*
%TO.C,J1*%
X116780000Y-72728000D02*
X129600000Y-72728000D01*
X129600000Y-72728000D02*
X129600000Y-70068000D01*
X129600000Y-70068000D02*
X116780000Y-70068000D01*
X116780000Y-70068000D02*
X116780000Y-72728000D01*
X117730000Y-70068000D02*
X117730000Y-64068000D01*
X117730000Y-64068000D02*
X118490000Y-64068000D01*
X118490000Y-64068000D02*
X118490000Y-70068000D01*
X117790000Y-70068000D02*
X117790000Y-64068000D01*
X117910000Y-70068000D02*
X117910000Y-64068000D01*
X118030000Y-70068000D02*
X118030000Y-64068000D01*
X118150000Y-70068000D02*
X118150000Y-64068000D01*
X118270000Y-70068000D02*
X118270000Y-64068000D01*
X118390000Y-70068000D02*
X118390000Y-64068000D01*
X117730000Y-73058000D02*
X117730000Y-72728000D01*
X118490000Y-73058000D02*
X118490000Y-72728000D01*
X119380000Y-72728000D02*
X119380000Y-70068000D01*
X120270000Y-70068000D02*
X120270000Y-64068000D01*
X120270000Y-64068000D02*
X121030000Y-64068000D01*
X121030000Y-64068000D02*
X121030000Y-70068000D01*
X120270000Y-73125071D02*
X120270000Y-72728000D01*
X121030000Y-73125071D02*
X121030000Y-72728000D01*
X121920000Y-72728000D02*
X121920000Y-70068000D01*
X122810000Y-70068000D02*
X122810000Y-64068000D01*
X122810000Y-64068000D02*
X123570000Y-64068000D01*
X123570000Y-64068000D02*
X123570000Y-70068000D01*
X122810000Y-73125071D02*
X122810000Y-72728000D01*
X123570000Y-73125071D02*
X123570000Y-72728000D01*
X124460000Y-72728000D02*
X124460000Y-70068000D01*
X125350000Y-70068000D02*
X125350000Y-64068000D01*
X125350000Y-64068000D02*
X126110000Y-64068000D01*
X126110000Y-64068000D02*
X126110000Y-70068000D01*
X125350000Y-73125071D02*
X125350000Y-72728000D01*
X126110000Y-73125071D02*
X126110000Y-72728000D01*
X127000000Y-72728000D02*
X127000000Y-70068000D01*
X127890000Y-70068000D02*
X127890000Y-64068000D01*
X127890000Y-64068000D02*
X128650000Y-64068000D01*
X128650000Y-64068000D02*
X128650000Y-70068000D01*
X127890000Y-73125071D02*
X127890000Y-72728000D01*
X128650000Y-73125071D02*
X128650000Y-72728000D01*
X118110000Y-75438000D02*
X116840000Y-75438000D01*
X116840000Y-75438000D02*
X116840000Y-74168000D01*
%TO.C,J4*%
X116780000Y-130616000D02*
X119440000Y-130616000D01*
X116780000Y-82296000D02*
X116780000Y-130616000D01*
X119440000Y-82296000D02*
X119440000Y-130616000D01*
X116780000Y-82296000D02*
X119440000Y-82296000D01*
X116780000Y-81026000D02*
X116780000Y-79696000D01*
X116780000Y-79696000D02*
X118110000Y-79696000D01*
%TO.C,PIC18F4580*%
X127905000Y-79696000D02*
X122445000Y-79696000D01*
X122445000Y-79696000D02*
X122445000Y-130616000D01*
X122445000Y-130616000D02*
X135365000Y-130616000D01*
X135365000Y-130616000D02*
X135365000Y-79696000D01*
X135365000Y-79696000D02*
X129905000Y-79696000D01*
X129905000Y-79696000D02*
G75*
G02*
X127905000Y-79696000I-1000000J0D01*
G01*
%TO.C,D9*%
X159294000Y-74866000D02*
X159294000Y-74710000D01*
X159294000Y-77182000D02*
X159294000Y-77026000D01*
X156692870Y-74866163D02*
G75*
G02*
X158774961Y-74866000I1041130J-1079837D01*
G01*
X156692870Y-77025837D02*
G75*
G03*
X158774961Y-77026000I1041130J1079837D01*
G01*
X156061665Y-74867392D02*
G75*
G02*
X159294000Y-74710484I1672335J-1078608D01*
G01*
X156061665Y-77024608D02*
G75*
G03*
X159294000Y-77181516I1672335J1078608D01*
G01*
%TO.C,R14*%
X145869000Y-81482000D02*
X150569000Y-81482000D01*
X145869000Y-87682000D02*
X150569000Y-87682000D01*
X150561090Y-87687853D02*
G75*
G03*
X150569000Y-81482000I-2292090J3105853D01*
G01*
X145895796Y-81461439D02*
G75*
G03*
X145869000Y-87682000I2373204J-3120561D01*
G01*
%TO.C,R15*%
X145066000Y-89765000D02*
X145066000Y-89435000D01*
X145066000Y-89435000D02*
X151606000Y-89435000D01*
X151606000Y-89435000D02*
X151606000Y-89765000D01*
X145066000Y-91845000D02*
X145066000Y-92175000D01*
X145066000Y-92175000D02*
X151606000Y-92175000D01*
X151606000Y-92175000D02*
X151606000Y-91845000D01*
%TO.C,R13*%
X145066000Y-121896000D02*
X145066000Y-121566000D01*
X145066000Y-121566000D02*
X151606000Y-121566000D01*
X151606000Y-121566000D02*
X151606000Y-121896000D01*
X145066000Y-123976000D02*
X145066000Y-124306000D01*
X145066000Y-124306000D02*
X151606000Y-124306000D01*
X151606000Y-124306000D02*
X151606000Y-123976000D01*
%TO.C,R12*%
X145066000Y-118594000D02*
X145066000Y-118264000D01*
X145066000Y-118264000D02*
X151606000Y-118264000D01*
X151606000Y-118264000D02*
X151606000Y-118594000D01*
X145066000Y-120674000D02*
X145066000Y-121004000D01*
X145066000Y-121004000D02*
X151606000Y-121004000D01*
X151606000Y-121004000D02*
X151606000Y-120674000D01*
%TO.C,R10*%
X138581000Y-140367000D02*
X138911000Y-140367000D01*
X138911000Y-140367000D02*
X138911000Y-146907000D01*
X138911000Y-146907000D02*
X138581000Y-146907000D01*
X136501000Y-140367000D02*
X136171000Y-140367000D01*
X136171000Y-140367000D02*
X136171000Y-146907000D01*
X136171000Y-146907000D02*
X136501000Y-146907000D01*
%TO.C,R9*%
X139676000Y-146907000D02*
X139346000Y-146907000D01*
X139346000Y-146907000D02*
X139346000Y-140367000D01*
X139346000Y-140367000D02*
X139676000Y-140367000D01*
X141756000Y-146907000D02*
X142086000Y-146907000D01*
X142086000Y-146907000D02*
X142086000Y-140367000D01*
X142086000Y-140367000D02*
X141756000Y-140367000D01*
%TO.C,AFF1*%
X157720214Y-128207000D02*
G75*
G03*
X157720214Y-128207000I-447214J0D01*
G01*
X147273000Y-135207000D02*
X147273000Y-128207000D01*
X152273000Y-129207000D02*
X152273000Y-136207000D01*
X147273000Y-128207000D02*
X152273000Y-129207000D01*
X157273000Y-130207000D02*
X152273000Y-129207000D01*
X157273000Y-137207000D02*
X157273000Y-130207000D01*
X152273000Y-136207000D02*
X157273000Y-137207000D01*
X147273000Y-135207000D02*
X152273000Y-136207000D01*
X142638000Y-125907000D02*
X142638000Y-138507000D01*
X161908000Y-137507000D02*
X161908000Y-125907000D01*
X157988000Y-125797000D02*
X146558000Y-125797000D01*
X157988000Y-138617000D02*
X146558000Y-138617000D01*
%TO.C,R11*%
X160877000Y-73379000D02*
X160877000Y-73049000D01*
X154337000Y-73379000D02*
X160877000Y-73379000D01*
X154337000Y-73049000D02*
X154337000Y-73379000D01*
X160877000Y-70639000D02*
X160877000Y-70969000D01*
X154337000Y-70639000D02*
X160877000Y-70639000D01*
X154337000Y-70969000D02*
X154337000Y-70639000D01*
%TO.C,RV1*%
X122933000Y-147692000D02*
X119903000Y-147692000D01*
X118603000Y-147692000D02*
X115693000Y-147692000D01*
X122933000Y-140852000D02*
X119903000Y-140852000D01*
X118603000Y-140852000D02*
X115693000Y-140852000D01*
X122933000Y-147692000D02*
X122933000Y-140852000D01*
X115693000Y-147692000D02*
X115693000Y-140852000D01*
%TO.C,C5*%
X161111000Y-81661000D02*
G75*
G03*
X161111000Y-81661000I-3270000J0D01*
G01*
%TO.C,Bot\u00E3o1*%
X153305000Y-140807000D02*
X148805000Y-140807000D01*
X154555000Y-144807000D02*
X154555000Y-143307000D01*
X148805000Y-147307000D02*
X153305000Y-147307000D01*
X147555000Y-143307000D02*
X147555000Y-144807000D01*
%TO.C,RESET1*%
X132731000Y-140804000D02*
X128231000Y-140804000D01*
X133981000Y-144804000D02*
X133981000Y-143304000D01*
X128231000Y-147304000D02*
X132731000Y-147304000D01*
X126981000Y-143304000D02*
X126981000Y-144804000D01*
%TO.C,J3*%
X141030000Y-79696000D02*
X138370000Y-79696000D01*
X141030000Y-128016000D02*
X141030000Y-79696000D01*
X138370000Y-128016000D02*
X138370000Y-79696000D01*
X141030000Y-128016000D02*
X138370000Y-128016000D01*
X141030000Y-129286000D02*
X141030000Y-130616000D01*
X141030000Y-130616000D02*
X139700000Y-130616000D01*
%TO.C,J2*%
X148530000Y-64205000D02*
X148530000Y-72835000D01*
X148411905Y-64205000D02*
X148411905Y-72835000D01*
X148293810Y-64205000D02*
X148293810Y-72835000D01*
X148175715Y-64205000D02*
X148175715Y-72835000D01*
X148057620Y-64205000D02*
X148057620Y-72835000D01*
X147939525Y-64205000D02*
X147939525Y-72835000D01*
X147821430Y-64205000D02*
X147821430Y-72835000D01*
X147703335Y-64205000D02*
X147703335Y-72835000D01*
X147585240Y-64205000D02*
X147585240Y-72835000D01*
X147467145Y-64205000D02*
X147467145Y-72835000D01*
X147349050Y-64205000D02*
X147349050Y-72835000D01*
X147230955Y-64205000D02*
X147230955Y-72835000D01*
X147112860Y-64205000D02*
X147112860Y-72835000D01*
X146994765Y-64205000D02*
X146994765Y-72835000D01*
X146876670Y-64205000D02*
X146876670Y-72835000D01*
X146758575Y-64205000D02*
X146758575Y-72835000D01*
X146640480Y-64205000D02*
X146640480Y-72835000D01*
X146522385Y-64205000D02*
X146522385Y-72835000D01*
X146404290Y-64205000D02*
X146404290Y-72835000D01*
X146286195Y-64205000D02*
X146286195Y-72835000D01*
X146168100Y-64205000D02*
X146168100Y-72835000D01*
X147680000Y-72835000D02*
X147680000Y-73185000D01*
X146960000Y-72835000D02*
X146960000Y-73185000D01*
X145140000Y-72835000D02*
X145140000Y-73245000D01*
X144420000Y-72835000D02*
X144420000Y-73245000D01*
X142600000Y-72835000D02*
X142600000Y-73245000D01*
X141880000Y-72835000D02*
X141880000Y-73245000D01*
X140060000Y-72835000D02*
X140060000Y-73245000D01*
X139340000Y-72835000D02*
X139340000Y-73245000D01*
X146050000Y-64205000D02*
X146050000Y-72835000D01*
X143510000Y-64205000D02*
X143510000Y-72835000D01*
X140970000Y-64205000D02*
X140970000Y-72835000D01*
X148650000Y-64205000D02*
X148650000Y-72835000D01*
X148650000Y-72835000D02*
X138370000Y-72835000D01*
X138370000Y-64205000D02*
X138370000Y-72835000D01*
X148650000Y-64205000D02*
X138370000Y-64205000D01*
X148650000Y-75405000D02*
X147320000Y-75405000D01*
X148650000Y-74295000D02*
X148650000Y-75405000D01*
%TO.C,D8*%
X159294000Y-121378000D02*
X159294000Y-121222000D01*
X159294000Y-119062000D02*
X159294000Y-118906000D01*
X156692870Y-119062163D02*
G75*
G02*
X158774961Y-119062000I1041130J-1079837D01*
G01*
X156692870Y-121221837D02*
G75*
G03*
X158774961Y-121222000I1041130J1079837D01*
G01*
X156061665Y-119063392D02*
G75*
G02*
X159294000Y-118906484I1672335J-1078608D01*
G01*
X156061665Y-121220608D02*
G75*
G03*
X159294000Y-121377516I1672335J1078608D01*
G01*
%TO.C,D7*%
X159294000Y-116679000D02*
X159294000Y-116523000D01*
X159294000Y-114363000D02*
X159294000Y-114207000D01*
X156692870Y-114363163D02*
G75*
G02*
X158774961Y-114363000I1041130J-1079837D01*
G01*
X156692870Y-116522837D02*
G75*
G03*
X158774961Y-116523000I1041130J1079837D01*
G01*
X156061665Y-114364392D02*
G75*
G02*
X159294000Y-114207484I1672335J-1078608D01*
G01*
X156061665Y-116521608D02*
G75*
G03*
X159294000Y-116678516I1672335J1078608D01*
G01*
%TO.C,D6*%
X159294000Y-112044000D02*
X159294000Y-111888000D01*
X159294000Y-109728000D02*
X159294000Y-109572000D01*
X156692870Y-109728163D02*
G75*
G02*
X158774961Y-109728000I1041130J-1079837D01*
G01*
X156692870Y-111887837D02*
G75*
G03*
X158774961Y-111888000I1041130J1079837D01*
G01*
X156061665Y-109729392D02*
G75*
G02*
X159294000Y-109572484I1672335J-1078608D01*
G01*
X156061665Y-111886608D02*
G75*
G03*
X159294000Y-112043516I1672335J1078608D01*
G01*
%TO.C,D5*%
X159294000Y-107408000D02*
X159294000Y-107252000D01*
X159294000Y-105092000D02*
X159294000Y-104936000D01*
X156692870Y-105092163D02*
G75*
G02*
X158774961Y-105092000I1041130J-1079837D01*
G01*
X156692870Y-107251837D02*
G75*
G03*
X158774961Y-107252000I1041130J1079837D01*
G01*
X156061665Y-105093392D02*
G75*
G02*
X159294000Y-104936484I1672335J-1078608D01*
G01*
X156061665Y-107250608D02*
G75*
G03*
X159294000Y-107407516I1672335J1078608D01*
G01*
%TO.C,D4*%
X159294000Y-102772000D02*
X159294000Y-102616000D01*
X159294000Y-100456000D02*
X159294000Y-100300000D01*
X156692870Y-100456163D02*
G75*
G02*
X158774961Y-100456000I1041130J-1079837D01*
G01*
X156692870Y-102615837D02*
G75*
G03*
X158774961Y-102616000I1041130J1079837D01*
G01*
X156061665Y-100457392D02*
G75*
G02*
X159294000Y-100300484I1672335J-1078608D01*
G01*
X156061665Y-102614608D02*
G75*
G03*
X159294000Y-102771516I1672335J1078608D01*
G01*
%TO.C,D3*%
X159294000Y-98073500D02*
X159294000Y-97917500D01*
X159294000Y-95757500D02*
X159294000Y-95601500D01*
X156692870Y-95757663D02*
G75*
G02*
X158774961Y-95757500I1041130J-1079837D01*
G01*
X156692870Y-97917337D02*
G75*
G03*
X158774961Y-97917500I1041130J1079837D01*
G01*
X156061665Y-95758892D02*
G75*
G02*
X159294000Y-95601984I1672335J-1078608D01*
G01*
X156061665Y-97916108D02*
G75*
G03*
X159294000Y-98073016I1672335J1078608D01*
G01*
%TO.C,D2*%
X159294000Y-93438000D02*
X159294000Y-93282000D01*
X159294000Y-91122000D02*
X159294000Y-90966000D01*
X156692870Y-91122163D02*
G75*
G02*
X158774961Y-91122000I1041130J-1079837D01*
G01*
X156692870Y-93281837D02*
G75*
G03*
X158774961Y-93282000I1041130J1079837D01*
G01*
X156061665Y-91123392D02*
G75*
G02*
X159294000Y-90966484I1672335J-1078608D01*
G01*
X156061665Y-93280608D02*
G75*
G03*
X159294000Y-93437516I1672335J1078608D01*
G01*
%TO.C,D1*%
X159294000Y-88802500D02*
X159294000Y-88646500D01*
X159294000Y-86486500D02*
X159294000Y-86330500D01*
X156692870Y-86486663D02*
G75*
G02*
X158774961Y-86486500I1041130J-1079837D01*
G01*
X156692870Y-88646337D02*
G75*
G03*
X158774961Y-88646500I1041130J1079837D01*
G01*
X156061665Y-86487892D02*
G75*
G02*
X159294000Y-86330984I1672335J-1078608D01*
G01*
X156061665Y-88645108D02*
G75*
G03*
X159294000Y-88802016I1672335J1078608D01*
G01*
%TO.C,C3*%
X151115000Y-80491000D02*
X144875000Y-80491000D01*
X151115000Y-77751000D02*
X144875000Y-77751000D01*
X151115000Y-80491000D02*
X151115000Y-80046000D01*
X151115000Y-78196000D02*
X151115000Y-77751000D01*
X144875000Y-80491000D02*
X144875000Y-80046000D01*
X144875000Y-78196000D02*
X144875000Y-77751000D01*
%TO.C,R8*%
X151606000Y-101497000D02*
X151606000Y-101827000D01*
X151606000Y-101827000D02*
X145066000Y-101827000D01*
X145066000Y-101827000D02*
X145066000Y-101497000D01*
X151606000Y-99417000D02*
X151606000Y-99087000D01*
X151606000Y-99087000D02*
X145066000Y-99087000D01*
X145066000Y-99087000D02*
X145066000Y-99417000D01*
%TO.C,R7*%
X151606000Y-104672000D02*
X151606000Y-105002000D01*
X151606000Y-105002000D02*
X145066000Y-105002000D01*
X145066000Y-105002000D02*
X145066000Y-104672000D01*
X151606000Y-102592000D02*
X151606000Y-102262000D01*
X151606000Y-102262000D02*
X145066000Y-102262000D01*
X145066000Y-102262000D02*
X145066000Y-102592000D01*
%TO.C,R6*%
X151606000Y-107847000D02*
X151606000Y-108177000D01*
X151606000Y-108177000D02*
X145066000Y-108177000D01*
X145066000Y-108177000D02*
X145066000Y-107847000D01*
X151606000Y-105767000D02*
X151606000Y-105437000D01*
X151606000Y-105437000D02*
X145066000Y-105437000D01*
X145066000Y-105437000D02*
X145066000Y-105767000D01*
%TO.C,R5*%
X151606000Y-111022000D02*
X151606000Y-111352000D01*
X151606000Y-111352000D02*
X145066000Y-111352000D01*
X145066000Y-111352000D02*
X145066000Y-111022000D01*
X151606000Y-108942000D02*
X151606000Y-108612000D01*
X151606000Y-108612000D02*
X145066000Y-108612000D01*
X145066000Y-108612000D02*
X145066000Y-108942000D01*
%TO.C,R4*%
X151606000Y-114197000D02*
X151606000Y-114527000D01*
X151606000Y-114527000D02*
X145066000Y-114527000D01*
X145066000Y-114527000D02*
X145066000Y-114197000D01*
X151606000Y-112117000D02*
X151606000Y-111787000D01*
X151606000Y-111787000D02*
X145066000Y-111787000D01*
X145066000Y-111787000D02*
X145066000Y-112117000D01*
%TO.C,R3*%
X151606000Y-117372000D02*
X151606000Y-117702000D01*
X151606000Y-117702000D02*
X145066000Y-117702000D01*
X145066000Y-117702000D02*
X145066000Y-117372000D01*
X151606000Y-115292000D02*
X151606000Y-114962000D01*
X151606000Y-114962000D02*
X145066000Y-114962000D01*
X145066000Y-114962000D02*
X145066000Y-115292000D01*
%TO.C,R2*%
X151606000Y-98322000D02*
X151606000Y-98652000D01*
X151606000Y-98652000D02*
X145066000Y-98652000D01*
X145066000Y-98652000D02*
X145066000Y-98322000D01*
X151606000Y-96242000D02*
X151606000Y-95912000D01*
X151606000Y-95912000D02*
X145066000Y-95912000D01*
X145066000Y-95912000D02*
X145066000Y-96242000D01*
%TO.C,R1*%
X151606000Y-95147000D02*
X151606000Y-95477000D01*
X151606000Y-95477000D02*
X145066000Y-95477000D01*
X145066000Y-95477000D02*
X145066000Y-95147000D01*
X151606000Y-93067000D02*
X151606000Y-92737000D01*
X151606000Y-92737000D02*
X145066000Y-92737000D01*
X145066000Y-92737000D02*
X145066000Y-93067000D01*
%TO.C,C1*%
X127269000Y-136933000D02*
X133509000Y-136933000D01*
X127269000Y-139673000D02*
X133509000Y-139673000D01*
X127269000Y-136933000D02*
X127269000Y-137378000D01*
X127269000Y-139228000D02*
X127269000Y-139673000D01*
X133509000Y-136933000D02*
X133509000Y-137378000D01*
X133509000Y-139228000D02*
X133509000Y-139673000D01*
%TO.C,C2*%
X145357520Y-141139940D02*
X145357520Y-147379940D01*
X142617520Y-141139940D02*
X142617520Y-147379940D01*
X145357520Y-141139940D02*
X144912520Y-141139940D01*
X143062520Y-141139940D02*
X142617520Y-141139940D01*
X145357520Y-147379940D02*
X144912520Y-147379940D01*
X143062520Y-147379940D02*
X142617520Y-147379940D01*
%TO.C,PIC18F4580*%
D10*
X124619285Y-79148380D02*
X124619285Y-78148380D01*
X125000238Y-78148380D01*
X125095476Y-78196000D01*
X125143095Y-78243619D01*
X125190714Y-78338857D01*
X125190714Y-78481714D01*
X125143095Y-78576952D01*
X125095476Y-78624571D01*
X125000238Y-78672190D01*
X124619285Y-78672190D01*
X125619285Y-79148380D02*
X125619285Y-78148380D01*
X126666904Y-79053142D02*
X126619285Y-79100761D01*
X126476428Y-79148380D01*
X126381190Y-79148380D01*
X126238333Y-79100761D01*
X126143095Y-79005523D01*
X126095476Y-78910285D01*
X126047857Y-78719809D01*
X126047857Y-78576952D01*
X126095476Y-78386476D01*
X126143095Y-78291238D01*
X126238333Y-78196000D01*
X126381190Y-78148380D01*
X126476428Y-78148380D01*
X126619285Y-78196000D01*
X126666904Y-78243619D01*
X127619285Y-79148380D02*
X127047857Y-79148380D01*
X127333571Y-79148380D02*
X127333571Y-78148380D01*
X127238333Y-78291238D01*
X127143095Y-78386476D01*
X127047857Y-78434095D01*
X128190714Y-78576952D02*
X128095476Y-78529333D01*
X128047857Y-78481714D01*
X128000238Y-78386476D01*
X128000238Y-78338857D01*
X128047857Y-78243619D01*
X128095476Y-78196000D01*
X128190714Y-78148380D01*
X128381190Y-78148380D01*
X128476428Y-78196000D01*
X128524047Y-78243619D01*
X128571666Y-78338857D01*
X128571666Y-78386476D01*
X128524047Y-78481714D01*
X128476428Y-78529333D01*
X128381190Y-78576952D01*
X128190714Y-78576952D01*
X128095476Y-78624571D01*
X128047857Y-78672190D01*
X128000238Y-78767428D01*
X128000238Y-78957904D01*
X128047857Y-79053142D01*
X128095476Y-79100761D01*
X128190714Y-79148380D01*
X128381190Y-79148380D01*
X128476428Y-79100761D01*
X128524047Y-79053142D01*
X128571666Y-78957904D01*
X128571666Y-78767428D01*
X128524047Y-78672190D01*
X128476428Y-78624571D01*
X128381190Y-78576952D01*
X129333571Y-78624571D02*
X129000238Y-78624571D01*
X129000238Y-79148380D02*
X129000238Y-78148380D01*
X129476428Y-78148380D01*
X130285952Y-78481714D02*
X130285952Y-79148380D01*
X130047857Y-78100761D02*
X129809761Y-78815047D01*
X130428809Y-78815047D01*
X131285952Y-78148380D02*
X130809761Y-78148380D01*
X130762142Y-78624571D01*
X130809761Y-78576952D01*
X130905000Y-78529333D01*
X131143095Y-78529333D01*
X131238333Y-78576952D01*
X131285952Y-78624571D01*
X131333571Y-78719809D01*
X131333571Y-78957904D01*
X131285952Y-79053142D01*
X131238333Y-79100761D01*
X131143095Y-79148380D01*
X130905000Y-79148380D01*
X130809761Y-79100761D01*
X130762142Y-79053142D01*
X131905000Y-78576952D02*
X131809761Y-78529333D01*
X131762142Y-78481714D01*
X131714523Y-78386476D01*
X131714523Y-78338857D01*
X131762142Y-78243619D01*
X131809761Y-78196000D01*
X131905000Y-78148380D01*
X132095476Y-78148380D01*
X132190714Y-78196000D01*
X132238333Y-78243619D01*
X132285952Y-78338857D01*
X132285952Y-78386476D01*
X132238333Y-78481714D01*
X132190714Y-78529333D01*
X132095476Y-78576952D01*
X131905000Y-78576952D01*
X131809761Y-78624571D01*
X131762142Y-78672190D01*
X131714523Y-78767428D01*
X131714523Y-78957904D01*
X131762142Y-79053142D01*
X131809761Y-79100761D01*
X131905000Y-79148380D01*
X132095476Y-79148380D01*
X132190714Y-79100761D01*
X132238333Y-79053142D01*
X132285952Y-78957904D01*
X132285952Y-78767428D01*
X132238333Y-78672190D01*
X132190714Y-78624571D01*
X132095476Y-78576952D01*
X132905000Y-78148380D02*
X133000238Y-78148380D01*
X133095476Y-78196000D01*
X133143095Y-78243619D01*
X133190714Y-78338857D01*
X133238333Y-78529333D01*
X133238333Y-78767428D01*
X133190714Y-78957904D01*
X133143095Y-79053142D01*
X133095476Y-79100761D01*
X133000238Y-79148380D01*
X132905000Y-79148380D01*
X132809761Y-79100761D01*
X132762142Y-79053142D01*
X132714523Y-78957904D01*
X132666904Y-78767428D01*
X132666904Y-78529333D01*
X132714523Y-78338857D01*
X132762142Y-78243619D01*
X132809761Y-78196000D01*
X132905000Y-78148380D01*
%TO.C,D9*%
X160043904Y-76652380D02*
X160043904Y-75652380D01*
X160282000Y-75652380D01*
X160424857Y-75700000D01*
X160520095Y-75795238D01*
X160567714Y-75890476D01*
X160615333Y-76080952D01*
X160615333Y-76223809D01*
X160567714Y-76414285D01*
X160520095Y-76509523D01*
X160424857Y-76604761D01*
X160282000Y-76652380D01*
X160043904Y-76652380D01*
X161091523Y-76652380D02*
X161282000Y-76652380D01*
X161377238Y-76604761D01*
X161424857Y-76557142D01*
X161520095Y-76414285D01*
X161567714Y-76223809D01*
X161567714Y-75842857D01*
X161520095Y-75747619D01*
X161472476Y-75700000D01*
X161377238Y-75652380D01*
X161186761Y-75652380D01*
X161091523Y-75700000D01*
X161043904Y-75747619D01*
X160996285Y-75842857D01*
X160996285Y-76080952D01*
X161043904Y-76176190D01*
X161091523Y-76223809D01*
X161186761Y-76271428D01*
X161377238Y-76271428D01*
X161472476Y-76223809D01*
X161520095Y-76176190D01*
X161567714Y-76080952D01*
%TO.C,R14*%
X147693142Y-85034380D02*
X147359809Y-84558190D01*
X147121714Y-85034380D02*
X147121714Y-84034380D01*
X147502666Y-84034380D01*
X147597904Y-84082000D01*
X147645523Y-84129619D01*
X147693142Y-84224857D01*
X147693142Y-84367714D01*
X147645523Y-84462952D01*
X147597904Y-84510571D01*
X147502666Y-84558190D01*
X147121714Y-84558190D01*
X148645523Y-85034380D02*
X148074095Y-85034380D01*
X148359809Y-85034380D02*
X148359809Y-84034380D01*
X148264571Y-84177238D01*
X148169333Y-84272476D01*
X148074095Y-84320095D01*
X149502666Y-84367714D02*
X149502666Y-85034380D01*
X149264571Y-83986761D02*
X149026476Y-84701047D01*
X149645523Y-84701047D01*
%TO.C,R15*%
X147693142Y-91257380D02*
X147359809Y-90781190D01*
X147121714Y-91257380D02*
X147121714Y-90257380D01*
X147502666Y-90257380D01*
X147597904Y-90305000D01*
X147645523Y-90352619D01*
X147693142Y-90447857D01*
X147693142Y-90590714D01*
X147645523Y-90685952D01*
X147597904Y-90733571D01*
X147502666Y-90781190D01*
X147121714Y-90781190D01*
X148645523Y-91257380D02*
X148074095Y-91257380D01*
X148359809Y-91257380D02*
X148359809Y-90257380D01*
X148264571Y-90400238D01*
X148169333Y-90495476D01*
X148074095Y-90543095D01*
X149550285Y-90257380D02*
X149074095Y-90257380D01*
X149026476Y-90733571D01*
X149074095Y-90685952D01*
X149169333Y-90638333D01*
X149407428Y-90638333D01*
X149502666Y-90685952D01*
X149550285Y-90733571D01*
X149597904Y-90828809D01*
X149597904Y-91066904D01*
X149550285Y-91162142D01*
X149502666Y-91209761D01*
X149407428Y-91257380D01*
X149169333Y-91257380D01*
X149074095Y-91209761D01*
X149026476Y-91162142D01*
%TO.C,R13*%
X147439142Y-123388380D02*
X147105809Y-122912190D01*
X146867714Y-123388380D02*
X146867714Y-122388380D01*
X147248666Y-122388380D01*
X147343904Y-122436000D01*
X147391523Y-122483619D01*
X147439142Y-122578857D01*
X147439142Y-122721714D01*
X147391523Y-122816952D01*
X147343904Y-122864571D01*
X147248666Y-122912190D01*
X146867714Y-122912190D01*
X148391523Y-123388380D02*
X147820095Y-123388380D01*
X148105809Y-123388380D02*
X148105809Y-122388380D01*
X148010571Y-122531238D01*
X147915333Y-122626476D01*
X147820095Y-122674095D01*
X148724857Y-122388380D02*
X149343904Y-122388380D01*
X149010571Y-122769333D01*
X149153428Y-122769333D01*
X149248666Y-122816952D01*
X149296285Y-122864571D01*
X149343904Y-122959809D01*
X149343904Y-123197904D01*
X149296285Y-123293142D01*
X149248666Y-123340761D01*
X149153428Y-123388380D01*
X148867714Y-123388380D01*
X148772476Y-123340761D01*
X148724857Y-123293142D01*
%TO.C,R12*%
X147693142Y-119832380D02*
X147359809Y-119356190D01*
X147121714Y-119832380D02*
X147121714Y-118832380D01*
X147502666Y-118832380D01*
X147597904Y-118880000D01*
X147645523Y-118927619D01*
X147693142Y-119022857D01*
X147693142Y-119165714D01*
X147645523Y-119260952D01*
X147597904Y-119308571D01*
X147502666Y-119356190D01*
X147121714Y-119356190D01*
X148645523Y-119832380D02*
X148074095Y-119832380D01*
X148359809Y-119832380D02*
X148359809Y-118832380D01*
X148264571Y-118975238D01*
X148169333Y-119070476D01*
X148074095Y-119118095D01*
X149026476Y-118927619D02*
X149074095Y-118880000D01*
X149169333Y-118832380D01*
X149407428Y-118832380D01*
X149502666Y-118880000D01*
X149550285Y-118927619D01*
X149597904Y-119022857D01*
X149597904Y-119118095D01*
X149550285Y-119260952D01*
X148978857Y-119832380D01*
X149597904Y-119832380D01*
%TO.C,R10*%
X137993380Y-144025857D02*
X137517190Y-144359190D01*
X137993380Y-144597285D02*
X136993380Y-144597285D01*
X136993380Y-144216333D01*
X137041000Y-144121095D01*
X137088619Y-144073476D01*
X137183857Y-144025857D01*
X137326714Y-144025857D01*
X137421952Y-144073476D01*
X137469571Y-144121095D01*
X137517190Y-144216333D01*
X137517190Y-144597285D01*
X137993380Y-143073476D02*
X137993380Y-143644904D01*
X137993380Y-143359190D02*
X136993380Y-143359190D01*
X137136238Y-143454428D01*
X137231476Y-143549666D01*
X137279095Y-143644904D01*
X136993380Y-142454428D02*
X136993380Y-142359190D01*
X137041000Y-142263952D01*
X137088619Y-142216333D01*
X137183857Y-142168714D01*
X137374333Y-142121095D01*
X137612428Y-142121095D01*
X137802904Y-142168714D01*
X137898142Y-142216333D01*
X137945761Y-142263952D01*
X137993380Y-142359190D01*
X137993380Y-142454428D01*
X137945761Y-142549666D01*
X137898142Y-142597285D01*
X137802904Y-142644904D01*
X137612428Y-142692523D01*
X137374333Y-142692523D01*
X137183857Y-142644904D01*
X137088619Y-142597285D01*
X137041000Y-142549666D01*
X136993380Y-142454428D01*
%TO.C,R9*%
X141168380Y-143295666D02*
X140692190Y-143629000D01*
X141168380Y-143867095D02*
X140168380Y-143867095D01*
X140168380Y-143486142D01*
X140216000Y-143390904D01*
X140263619Y-143343285D01*
X140358857Y-143295666D01*
X140501714Y-143295666D01*
X140596952Y-143343285D01*
X140644571Y-143390904D01*
X140692190Y-143486142D01*
X140692190Y-143867095D01*
X141168380Y-142819476D02*
X141168380Y-142629000D01*
X141120761Y-142533761D01*
X141073142Y-142486142D01*
X140930285Y-142390904D01*
X140739809Y-142343285D01*
X140358857Y-142343285D01*
X140263619Y-142390904D01*
X140216000Y-142438523D01*
X140168380Y-142533761D01*
X140168380Y-142724238D01*
X140216000Y-142819476D01*
X140263619Y-142867095D01*
X140358857Y-142914714D01*
X140596952Y-142914714D01*
X140692190Y-142867095D01*
X140739809Y-142819476D01*
X140787428Y-142724238D01*
X140787428Y-142533761D01*
X140739809Y-142438523D01*
X140692190Y-142390904D01*
X140596952Y-142343285D01*
%TO.C,AFF1*%
X150447571Y-137453666D02*
X150923761Y-137453666D01*
X150352333Y-137739380D02*
X150685666Y-136739380D01*
X151019000Y-137739380D01*
X151685666Y-137215571D02*
X151352333Y-137215571D01*
X151352333Y-137739380D02*
X151352333Y-136739380D01*
X151828523Y-136739380D01*
X152542809Y-137215571D02*
X152209476Y-137215571D01*
X152209476Y-137739380D02*
X152209476Y-136739380D01*
X152685666Y-136739380D01*
X153590428Y-137739380D02*
X153019000Y-137739380D01*
X153304714Y-137739380D02*
X153304714Y-136739380D01*
X153209476Y-136882238D01*
X153114238Y-136977476D01*
X153019000Y-137025095D01*
%TO.C,R11*%
X156964142Y-72461380D02*
X156630809Y-71985190D01*
X156392714Y-72461380D02*
X156392714Y-71461380D01*
X156773666Y-71461380D01*
X156868904Y-71509000D01*
X156916523Y-71556619D01*
X156964142Y-71651857D01*
X156964142Y-71794714D01*
X156916523Y-71889952D01*
X156868904Y-71937571D01*
X156773666Y-71985190D01*
X156392714Y-71985190D01*
X157916523Y-72461380D02*
X157345095Y-72461380D01*
X157630809Y-72461380D02*
X157630809Y-71461380D01*
X157535571Y-71604238D01*
X157440333Y-71699476D01*
X157345095Y-71747095D01*
X158868904Y-72461380D02*
X158297476Y-72461380D01*
X158583190Y-72461380D02*
X158583190Y-71461380D01*
X158487952Y-71604238D01*
X158392714Y-71699476D01*
X158297476Y-71747095D01*
%TO.C,RV1*%
X118657761Y-144724380D02*
X118324428Y-144248190D01*
X118086333Y-144724380D02*
X118086333Y-143724380D01*
X118467285Y-143724380D01*
X118562523Y-143772000D01*
X118610142Y-143819619D01*
X118657761Y-143914857D01*
X118657761Y-144057714D01*
X118610142Y-144152952D01*
X118562523Y-144200571D01*
X118467285Y-144248190D01*
X118086333Y-144248190D01*
X118943476Y-143724380D02*
X119276809Y-144724380D01*
X119610142Y-143724380D01*
X120467285Y-144724380D02*
X119895857Y-144724380D01*
X120181571Y-144724380D02*
X120181571Y-143724380D01*
X120086333Y-143867238D01*
X119991095Y-143962476D01*
X119895857Y-144010095D01*
%TO.C,C5*%
X157630833Y-79668642D02*
X157583214Y-79716261D01*
X157440357Y-79763880D01*
X157345119Y-79763880D01*
X157202261Y-79716261D01*
X157107023Y-79621023D01*
X157059404Y-79525785D01*
X157011785Y-79335309D01*
X157011785Y-79192452D01*
X157059404Y-79001976D01*
X157107023Y-78906738D01*
X157202261Y-78811500D01*
X157345119Y-78763880D01*
X157440357Y-78763880D01*
X157583214Y-78811500D01*
X157630833Y-78859119D01*
X158535595Y-78763880D02*
X158059404Y-78763880D01*
X158011785Y-79240071D01*
X158059404Y-79192452D01*
X158154642Y-79144833D01*
X158392738Y-79144833D01*
X158487976Y-79192452D01*
X158535595Y-79240071D01*
X158583214Y-79335309D01*
X158583214Y-79573404D01*
X158535595Y-79668642D01*
X158487976Y-79716261D01*
X158392738Y-79763880D01*
X158154642Y-79763880D01*
X158059404Y-79716261D01*
X158011785Y-79668642D01*
%TO.C,Bot\u00E3o1*%
X149336380Y-148458071D02*
X149479238Y-148505690D01*
X149526857Y-148553309D01*
X149574476Y-148648547D01*
X149574476Y-148791404D01*
X149526857Y-148886642D01*
X149479238Y-148934261D01*
X149384000Y-148981880D01*
X149003047Y-148981880D01*
X149003047Y-147981880D01*
X149336380Y-147981880D01*
X149431619Y-148029500D01*
X149479238Y-148077119D01*
X149526857Y-148172357D01*
X149526857Y-148267595D01*
X149479238Y-148362833D01*
X149431619Y-148410452D01*
X149336380Y-148458071D01*
X149003047Y-148458071D01*
X150145904Y-148981880D02*
X150050666Y-148934261D01*
X150003047Y-148886642D01*
X149955428Y-148791404D01*
X149955428Y-148505690D01*
X150003047Y-148410452D01*
X150050666Y-148362833D01*
X150145904Y-148315214D01*
X150288761Y-148315214D01*
X150384000Y-148362833D01*
X150431619Y-148410452D01*
X150479238Y-148505690D01*
X150479238Y-148791404D01*
X150431619Y-148886642D01*
X150384000Y-148934261D01*
X150288761Y-148981880D01*
X150145904Y-148981880D01*
X150764952Y-148315214D02*
X151145904Y-148315214D01*
X150907809Y-147981880D02*
X150907809Y-148839023D01*
X150955428Y-148934261D01*
X151050666Y-148981880D01*
X151145904Y-148981880D01*
X151907809Y-148981880D02*
X151907809Y-148458071D01*
X151860190Y-148362833D01*
X151764952Y-148315214D01*
X151574476Y-148315214D01*
X151479238Y-148362833D01*
X151907809Y-148934261D02*
X151812571Y-148981880D01*
X151574476Y-148981880D01*
X151479238Y-148934261D01*
X151431619Y-148839023D01*
X151431619Y-148743785D01*
X151479238Y-148648547D01*
X151574476Y-148600928D01*
X151812571Y-148600928D01*
X151907809Y-148553309D01*
X151431619Y-148077119D02*
X151479238Y-148029500D01*
X151574476Y-147981880D01*
X151764952Y-148077119D01*
X151860190Y-148029500D01*
X151907809Y-147981880D01*
X152526857Y-148981880D02*
X152431619Y-148934261D01*
X152384000Y-148886642D01*
X152336380Y-148791404D01*
X152336380Y-148505690D01*
X152384000Y-148410452D01*
X152431619Y-148362833D01*
X152526857Y-148315214D01*
X152669714Y-148315214D01*
X152764952Y-148362833D01*
X152812571Y-148410452D01*
X152860190Y-148505690D01*
X152860190Y-148791404D01*
X152812571Y-148886642D01*
X152764952Y-148934261D01*
X152669714Y-148981880D01*
X152526857Y-148981880D01*
X153812571Y-148981880D02*
X153241142Y-148981880D01*
X153526857Y-148981880D02*
X153526857Y-147981880D01*
X153431619Y-148124738D01*
X153336380Y-148219976D01*
X153241142Y-148267595D01*
%TO.C,RESET1*%
X128552428Y-149042380D02*
X128219095Y-148566190D01*
X127981000Y-149042380D02*
X127981000Y-148042380D01*
X128361952Y-148042380D01*
X128457190Y-148090000D01*
X128504809Y-148137619D01*
X128552428Y-148232857D01*
X128552428Y-148375714D01*
X128504809Y-148470952D01*
X128457190Y-148518571D01*
X128361952Y-148566190D01*
X127981000Y-148566190D01*
X128981000Y-148518571D02*
X129314333Y-148518571D01*
X129457190Y-149042380D02*
X128981000Y-149042380D01*
X128981000Y-148042380D01*
X129457190Y-148042380D01*
X129838142Y-148994761D02*
X129981000Y-149042380D01*
X130219095Y-149042380D01*
X130314333Y-148994761D01*
X130361952Y-148947142D01*
X130409571Y-148851904D01*
X130409571Y-148756666D01*
X130361952Y-148661428D01*
X130314333Y-148613809D01*
X130219095Y-148566190D01*
X130028619Y-148518571D01*
X129933380Y-148470952D01*
X129885761Y-148423333D01*
X129838142Y-148328095D01*
X129838142Y-148232857D01*
X129885761Y-148137619D01*
X129933380Y-148090000D01*
X130028619Y-148042380D01*
X130266714Y-148042380D01*
X130409571Y-148090000D01*
X130838142Y-148518571D02*
X131171476Y-148518571D01*
X131314333Y-149042380D02*
X130838142Y-149042380D01*
X130838142Y-148042380D01*
X131314333Y-148042380D01*
X131600047Y-148042380D02*
X132171476Y-148042380D01*
X131885761Y-149042380D02*
X131885761Y-148042380D01*
X133028619Y-149042380D02*
X132457190Y-149042380D01*
X132742904Y-149042380D02*
X132742904Y-148042380D01*
X132647666Y-148185238D01*
X132552428Y-148280476D01*
X132457190Y-148328095D01*
%TO.C,D8*%
X160297904Y-120594380D02*
X160297904Y-119594380D01*
X160536000Y-119594380D01*
X160678857Y-119642000D01*
X160774095Y-119737238D01*
X160821714Y-119832476D01*
X160869333Y-120022952D01*
X160869333Y-120165809D01*
X160821714Y-120356285D01*
X160774095Y-120451523D01*
X160678857Y-120546761D01*
X160536000Y-120594380D01*
X160297904Y-120594380D01*
X161440761Y-120022952D02*
X161345523Y-119975333D01*
X161297904Y-119927714D01*
X161250285Y-119832476D01*
X161250285Y-119784857D01*
X161297904Y-119689619D01*
X161345523Y-119642000D01*
X161440761Y-119594380D01*
X161631238Y-119594380D01*
X161726476Y-119642000D01*
X161774095Y-119689619D01*
X161821714Y-119784857D01*
X161821714Y-119832476D01*
X161774095Y-119927714D01*
X161726476Y-119975333D01*
X161631238Y-120022952D01*
X161440761Y-120022952D01*
X161345523Y-120070571D01*
X161297904Y-120118190D01*
X161250285Y-120213428D01*
X161250285Y-120403904D01*
X161297904Y-120499142D01*
X161345523Y-120546761D01*
X161440761Y-120594380D01*
X161631238Y-120594380D01*
X161726476Y-120546761D01*
X161774095Y-120499142D01*
X161821714Y-120403904D01*
X161821714Y-120213428D01*
X161774095Y-120118190D01*
X161726476Y-120070571D01*
X161631238Y-120022952D01*
%TO.C,D7*%
X160551904Y-116022380D02*
X160551904Y-115022380D01*
X160790000Y-115022380D01*
X160932857Y-115070000D01*
X161028095Y-115165238D01*
X161075714Y-115260476D01*
X161123333Y-115450952D01*
X161123333Y-115593809D01*
X161075714Y-115784285D01*
X161028095Y-115879523D01*
X160932857Y-115974761D01*
X160790000Y-116022380D01*
X160551904Y-116022380D01*
X161456666Y-115022380D02*
X162123333Y-115022380D01*
X161694761Y-116022380D01*
%TO.C,D6*%
X160551904Y-111450880D02*
X160551904Y-110450880D01*
X160790000Y-110450880D01*
X160932857Y-110498500D01*
X161028095Y-110593738D01*
X161075714Y-110688976D01*
X161123333Y-110879452D01*
X161123333Y-111022309D01*
X161075714Y-111212785D01*
X161028095Y-111308023D01*
X160932857Y-111403261D01*
X160790000Y-111450880D01*
X160551904Y-111450880D01*
X161980476Y-110450880D02*
X161790000Y-110450880D01*
X161694761Y-110498500D01*
X161647142Y-110546119D01*
X161551904Y-110688976D01*
X161504285Y-110879452D01*
X161504285Y-111260404D01*
X161551904Y-111355642D01*
X161599523Y-111403261D01*
X161694761Y-111450880D01*
X161885238Y-111450880D01*
X161980476Y-111403261D01*
X162028095Y-111355642D01*
X162075714Y-111260404D01*
X162075714Y-111022309D01*
X162028095Y-110927071D01*
X161980476Y-110879452D01*
X161885238Y-110831833D01*
X161694761Y-110831833D01*
X161599523Y-110879452D01*
X161551904Y-110927071D01*
X161504285Y-111022309D01*
%TO.C,D5*%
X160551904Y-106624380D02*
X160551904Y-105624380D01*
X160790000Y-105624380D01*
X160932857Y-105672000D01*
X161028095Y-105767238D01*
X161075714Y-105862476D01*
X161123333Y-106052952D01*
X161123333Y-106195809D01*
X161075714Y-106386285D01*
X161028095Y-106481523D01*
X160932857Y-106576761D01*
X160790000Y-106624380D01*
X160551904Y-106624380D01*
X162028095Y-105624380D02*
X161551904Y-105624380D01*
X161504285Y-106100571D01*
X161551904Y-106052952D01*
X161647142Y-106005333D01*
X161885238Y-106005333D01*
X161980476Y-106052952D01*
X162028095Y-106100571D01*
X162075714Y-106195809D01*
X162075714Y-106433904D01*
X162028095Y-106529142D01*
X161980476Y-106576761D01*
X161885238Y-106624380D01*
X161647142Y-106624380D01*
X161551904Y-106576761D01*
X161504285Y-106529142D01*
%TO.C,D4*%
X160551904Y-102051880D02*
X160551904Y-101051880D01*
X160790000Y-101051880D01*
X160932857Y-101099500D01*
X161028095Y-101194738D01*
X161075714Y-101289976D01*
X161123333Y-101480452D01*
X161123333Y-101623309D01*
X161075714Y-101813785D01*
X161028095Y-101909023D01*
X160932857Y-102004261D01*
X160790000Y-102051880D01*
X160551904Y-102051880D01*
X161980476Y-101385214D02*
X161980476Y-102051880D01*
X161742380Y-101004261D02*
X161504285Y-101718547D01*
X162123333Y-101718547D01*
%TO.C,D3*%
X160551904Y-97480380D02*
X160551904Y-96480380D01*
X160790000Y-96480380D01*
X160932857Y-96528000D01*
X161028095Y-96623238D01*
X161075714Y-96718476D01*
X161123333Y-96908952D01*
X161123333Y-97051809D01*
X161075714Y-97242285D01*
X161028095Y-97337523D01*
X160932857Y-97432761D01*
X160790000Y-97480380D01*
X160551904Y-97480380D01*
X161456666Y-96480380D02*
X162075714Y-96480380D01*
X161742380Y-96861333D01*
X161885238Y-96861333D01*
X161980476Y-96908952D01*
X162028095Y-96956571D01*
X162075714Y-97051809D01*
X162075714Y-97289904D01*
X162028095Y-97385142D01*
X161980476Y-97432761D01*
X161885238Y-97480380D01*
X161599523Y-97480380D01*
X161504285Y-97432761D01*
X161456666Y-97385142D01*
%TO.C,D2*%
X160551904Y-92654380D02*
X160551904Y-91654380D01*
X160790000Y-91654380D01*
X160932857Y-91702000D01*
X161028095Y-91797238D01*
X161075714Y-91892476D01*
X161123333Y-92082952D01*
X161123333Y-92225809D01*
X161075714Y-92416285D01*
X161028095Y-92511523D01*
X160932857Y-92606761D01*
X160790000Y-92654380D01*
X160551904Y-92654380D01*
X161504285Y-91749619D02*
X161551904Y-91702000D01*
X161647142Y-91654380D01*
X161885238Y-91654380D01*
X161980476Y-91702000D01*
X162028095Y-91749619D01*
X162075714Y-91844857D01*
X162075714Y-91940095D01*
X162028095Y-92082952D01*
X161456666Y-92654380D01*
X162075714Y-92654380D01*
%TO.C,D1*%
X160551904Y-88082380D02*
X160551904Y-87082380D01*
X160790000Y-87082380D01*
X160932857Y-87130000D01*
X161028095Y-87225238D01*
X161075714Y-87320476D01*
X161123333Y-87510952D01*
X161123333Y-87653809D01*
X161075714Y-87844285D01*
X161028095Y-87939523D01*
X160932857Y-88034761D01*
X160790000Y-88082380D01*
X160551904Y-88082380D01*
X162075714Y-88082380D02*
X161504285Y-88082380D01*
X161790000Y-88082380D02*
X161790000Y-87082380D01*
X161694761Y-87225238D01*
X161599523Y-87320476D01*
X161504285Y-87368095D01*
%TO.C,C3*%
X147828333Y-79351142D02*
X147780714Y-79398761D01*
X147637857Y-79446380D01*
X147542619Y-79446380D01*
X147399761Y-79398761D01*
X147304523Y-79303523D01*
X147256904Y-79208285D01*
X147209285Y-79017809D01*
X147209285Y-78874952D01*
X147256904Y-78684476D01*
X147304523Y-78589238D01*
X147399761Y-78494000D01*
X147542619Y-78446380D01*
X147637857Y-78446380D01*
X147780714Y-78494000D01*
X147828333Y-78541619D01*
X148161666Y-78446380D02*
X148780714Y-78446380D01*
X148447380Y-78827333D01*
X148590238Y-78827333D01*
X148685476Y-78874952D01*
X148733095Y-78922571D01*
X148780714Y-79017809D01*
X148780714Y-79255904D01*
X148733095Y-79351142D01*
X148685476Y-79398761D01*
X148590238Y-79446380D01*
X148304523Y-79446380D01*
X148209285Y-79398761D01*
X148161666Y-79351142D01*
%TO.C,R8*%
X148169333Y-100909380D02*
X147836000Y-100433190D01*
X147597904Y-100909380D02*
X147597904Y-99909380D01*
X147978857Y-99909380D01*
X148074095Y-99957000D01*
X148121714Y-100004619D01*
X148169333Y-100099857D01*
X148169333Y-100242714D01*
X148121714Y-100337952D01*
X148074095Y-100385571D01*
X147978857Y-100433190D01*
X147597904Y-100433190D01*
X148740761Y-100337952D02*
X148645523Y-100290333D01*
X148597904Y-100242714D01*
X148550285Y-100147476D01*
X148550285Y-100099857D01*
X148597904Y-100004619D01*
X148645523Y-99957000D01*
X148740761Y-99909380D01*
X148931238Y-99909380D01*
X149026476Y-99957000D01*
X149074095Y-100004619D01*
X149121714Y-100099857D01*
X149121714Y-100147476D01*
X149074095Y-100242714D01*
X149026476Y-100290333D01*
X148931238Y-100337952D01*
X148740761Y-100337952D01*
X148645523Y-100385571D01*
X148597904Y-100433190D01*
X148550285Y-100528428D01*
X148550285Y-100718904D01*
X148597904Y-100814142D01*
X148645523Y-100861761D01*
X148740761Y-100909380D01*
X148931238Y-100909380D01*
X149026476Y-100861761D01*
X149074095Y-100814142D01*
X149121714Y-100718904D01*
X149121714Y-100528428D01*
X149074095Y-100433190D01*
X149026476Y-100385571D01*
X148931238Y-100337952D01*
%TO.C,R7*%
X148169333Y-104084380D02*
X147836000Y-103608190D01*
X147597904Y-104084380D02*
X147597904Y-103084380D01*
X147978857Y-103084380D01*
X148074095Y-103132000D01*
X148121714Y-103179619D01*
X148169333Y-103274857D01*
X148169333Y-103417714D01*
X148121714Y-103512952D01*
X148074095Y-103560571D01*
X147978857Y-103608190D01*
X147597904Y-103608190D01*
X148502666Y-103084380D02*
X149169333Y-103084380D01*
X148740761Y-104084380D01*
%TO.C,R6*%
X148169333Y-107259380D02*
X147836000Y-106783190D01*
X147597904Y-107259380D02*
X147597904Y-106259380D01*
X147978857Y-106259380D01*
X148074095Y-106307000D01*
X148121714Y-106354619D01*
X148169333Y-106449857D01*
X148169333Y-106592714D01*
X148121714Y-106687952D01*
X148074095Y-106735571D01*
X147978857Y-106783190D01*
X147597904Y-106783190D01*
X149026476Y-106259380D02*
X148836000Y-106259380D01*
X148740761Y-106307000D01*
X148693142Y-106354619D01*
X148597904Y-106497476D01*
X148550285Y-106687952D01*
X148550285Y-107068904D01*
X148597904Y-107164142D01*
X148645523Y-107211761D01*
X148740761Y-107259380D01*
X148931238Y-107259380D01*
X149026476Y-107211761D01*
X149074095Y-107164142D01*
X149121714Y-107068904D01*
X149121714Y-106830809D01*
X149074095Y-106735571D01*
X149026476Y-106687952D01*
X148931238Y-106640333D01*
X148740761Y-106640333D01*
X148645523Y-106687952D01*
X148597904Y-106735571D01*
X148550285Y-106830809D01*
%TO.C,R5*%
X148169333Y-110434380D02*
X147836000Y-109958190D01*
X147597904Y-110434380D02*
X147597904Y-109434380D01*
X147978857Y-109434380D01*
X148074095Y-109482000D01*
X148121714Y-109529619D01*
X148169333Y-109624857D01*
X148169333Y-109767714D01*
X148121714Y-109862952D01*
X148074095Y-109910571D01*
X147978857Y-109958190D01*
X147597904Y-109958190D01*
X149074095Y-109434380D02*
X148597904Y-109434380D01*
X148550285Y-109910571D01*
X148597904Y-109862952D01*
X148693142Y-109815333D01*
X148931238Y-109815333D01*
X149026476Y-109862952D01*
X149074095Y-109910571D01*
X149121714Y-110005809D01*
X149121714Y-110243904D01*
X149074095Y-110339142D01*
X149026476Y-110386761D01*
X148931238Y-110434380D01*
X148693142Y-110434380D01*
X148597904Y-110386761D01*
X148550285Y-110339142D01*
%TO.C,R4*%
X148169333Y-113609380D02*
X147836000Y-113133190D01*
X147597904Y-113609380D02*
X147597904Y-112609380D01*
X147978857Y-112609380D01*
X148074095Y-112657000D01*
X148121714Y-112704619D01*
X148169333Y-112799857D01*
X148169333Y-112942714D01*
X148121714Y-113037952D01*
X148074095Y-113085571D01*
X147978857Y-113133190D01*
X147597904Y-113133190D01*
X149026476Y-112942714D02*
X149026476Y-113609380D01*
X148788380Y-112561761D02*
X148550285Y-113276047D01*
X149169333Y-113276047D01*
%TO.C,R3*%
X148169333Y-116784380D02*
X147836000Y-116308190D01*
X147597904Y-116784380D02*
X147597904Y-115784380D01*
X147978857Y-115784380D01*
X148074095Y-115832000D01*
X148121714Y-115879619D01*
X148169333Y-115974857D01*
X148169333Y-116117714D01*
X148121714Y-116212952D01*
X148074095Y-116260571D01*
X147978857Y-116308190D01*
X147597904Y-116308190D01*
X148502666Y-115784380D02*
X149121714Y-115784380D01*
X148788380Y-116165333D01*
X148931238Y-116165333D01*
X149026476Y-116212952D01*
X149074095Y-116260571D01*
X149121714Y-116355809D01*
X149121714Y-116593904D01*
X149074095Y-116689142D01*
X149026476Y-116736761D01*
X148931238Y-116784380D01*
X148645523Y-116784380D01*
X148550285Y-116736761D01*
X148502666Y-116689142D01*
%TO.C,R2*%
X148169333Y-97734380D02*
X147836000Y-97258190D01*
X147597904Y-97734380D02*
X147597904Y-96734380D01*
X147978857Y-96734380D01*
X148074095Y-96782000D01*
X148121714Y-96829619D01*
X148169333Y-96924857D01*
X148169333Y-97067714D01*
X148121714Y-97162952D01*
X148074095Y-97210571D01*
X147978857Y-97258190D01*
X147597904Y-97258190D01*
X148550285Y-96829619D02*
X148597904Y-96782000D01*
X148693142Y-96734380D01*
X148931238Y-96734380D01*
X149026476Y-96782000D01*
X149074095Y-96829619D01*
X149121714Y-96924857D01*
X149121714Y-97020095D01*
X149074095Y-97162952D01*
X148502666Y-97734380D01*
X149121714Y-97734380D01*
%TO.C,R1*%
X148169333Y-94559380D02*
X147836000Y-94083190D01*
X147597904Y-94559380D02*
X147597904Y-93559380D01*
X147978857Y-93559380D01*
X148074095Y-93607000D01*
X148121714Y-93654619D01*
X148169333Y-93749857D01*
X148169333Y-93892714D01*
X148121714Y-93987952D01*
X148074095Y-94035571D01*
X147978857Y-94083190D01*
X147597904Y-94083190D01*
X149121714Y-94559380D02*
X148550285Y-94559380D01*
X148836000Y-94559380D02*
X148836000Y-93559380D01*
X148740761Y-93702238D01*
X148645523Y-93797476D01*
X148550285Y-93845095D01*
%TO.C,C1*%
X130222333Y-138533142D02*
X130174714Y-138580761D01*
X130031857Y-138628380D01*
X129936619Y-138628380D01*
X129793761Y-138580761D01*
X129698523Y-138485523D01*
X129650904Y-138390285D01*
X129603285Y-138199809D01*
X129603285Y-138056952D01*
X129650904Y-137866476D01*
X129698523Y-137771238D01*
X129793761Y-137676000D01*
X129936619Y-137628380D01*
X130031857Y-137628380D01*
X130174714Y-137676000D01*
X130222333Y-137723619D01*
X131174714Y-138628380D02*
X130603285Y-138628380D01*
X130889000Y-138628380D02*
X130889000Y-137628380D01*
X130793761Y-137771238D01*
X130698523Y-137866476D01*
X130603285Y-137914095D01*
%TO.C,C2*%
X144344662Y-144466606D02*
X144392281Y-144514225D01*
X144439900Y-144657082D01*
X144439900Y-144752320D01*
X144392281Y-144895178D01*
X144297043Y-144990416D01*
X144201805Y-145038035D01*
X144011329Y-145085654D01*
X143868472Y-145085654D01*
X143677996Y-145038035D01*
X143582758Y-144990416D01*
X143487520Y-144895178D01*
X143439900Y-144752320D01*
X143439900Y-144657082D01*
X143487520Y-144514225D01*
X143535139Y-144466606D01*
X143535139Y-144085654D02*
X143487520Y-144038035D01*
X143439900Y-143942797D01*
X143439900Y-143704701D01*
X143487520Y-143609463D01*
X143535139Y-143561844D01*
X143630377Y-143514225D01*
X143725615Y-143514225D01*
X143868472Y-143561844D01*
X144439900Y-144133273D01*
X144439900Y-143514225D01*
%TD*%
M02*
